<svg id="Layer_1" data-name="Layer 1" xmlns="http://www.w3.org/2000/svg" viewBox="0 0 579.34 307.14"><defs><style>.cls-1{fill:#98ca3d;}.cls-2{fill:#fff;}</style></defs><title>Adverte logo</title><path class="cls-1" d="M.09,295.12S-6.63,160.67,94.5,104.41C195.38,48.3,181.73,0,181.73,0s72.5,204.26-5.51,280C124.22,330.44.09,295.12.09,295.12Z"/><path class="cls-2" d="M123.28,266.21H99.13l-1.8-19.28H83.09l-1.8,19.28h-20L79.13,127.83h25.76ZM95,227.65l-4.33-55.13-5.58,55.13Z"/><path class="cls-2" d="M204.33,237.2c0,22-11.17,29-30.09,29H144.33V127.83H173.7c20,0,30.63,7.57,30.63,31.35Zm-24-80.54c0-7.93-2.35-9.73-7.39-9.73H168.3V247.11h4.32c5.76,0,7.75-2.34,7.75-8.83Z"/><path class="cls-1" d="M283.58,127.83,266.65,266.57H238.18l-17.3-138.74h24.69l7.56,90.45,8.47-90.45Z"/><path class="cls-1" d="M352.56,266.21H303.92V127.83h48.47v19.1H327.88v38.38h20.37v19.46H327.88v42.34h24.68Z"/><path class="cls-1" d="M410.56,266.57a25,25,0,0,1-1.79-8.29c-.37-12.07-.37-16.57-.55-25.4C407.86,212.15,405,210,402.09,210h-3.42v56.57h-24V127.83h29.9c19.28,0,29.55,11,29.55,36.4,0,19.28-1.62,29.55-13.69,35.49,10.45,6.67,11.53,22.89,11.53,31.72v10.44c0,13,.73,18,2.35,24.69Zm-8.64-119.64h-3.25v43.78h3.07c5.4,0,9-4.32,9-22.88C410.74,149.81,407.14,146.93,401.92,146.93Z"/><path class="cls-1" d="M508.91,146.93H490V266.57H466V146.93H447.29v-19.1h61.62Z"/><path class="cls-1" d="M579.34,266.21H530.7V127.83h48.47v19.1H554.66v38.38H575v19.46H554.66v42.34h24.68Z"/></svg>