<svg id="Layer_1" data-name="Layer 1" xmlns="http://www.w3.org/2000/svg" xmlns:xlink="http://www.w3.org/1999/xlink" viewBox="0 0 1920.36 1410.42"><defs><style>.cls-1{fill:url(#linear-gradient);}.cls-2{fill:#98ca3d;}.cls-3{fill:#0b3453;}.cls-4{fill:#91b3d4;}</style><linearGradient id="linear-gradient" x1="1843.31" y1="922.1" x2="440.16" y2="576.92" gradientUnits="userSpaceOnUse"><stop offset="0" stop-color="#fff"/><stop offset="1" stop-color="#d9e8f4"/></linearGradient></defs><title>banner</title><rect class="cls-1" y="1.11" width="1918.79" height="1407.1"/><path class="cls-2" d="M276.34,1405.75a301.57,301.57,0,0,1,37.23-52.09c7.13-8,14.71-15.67,22.62-23s16.14-14.28,24.64-20.93a428.49,428.49,0,0,1,54-35.65,557.14,557.14,0,0,1,58.3-28.14c19.94-8.27,40.29-15.45,60.85-21.86,10.28-3.22,20.64-6.16,31-8.93s20.83-5.36,31.3-7.77c21-4.89,41.89-8.91,62.85-12.8s41.83-7.49,62.67-10.95,41.57-7,62.16-10.77,41.07-7.65,61.29-12.17,40.22-9.52,59.87-15.25l7.37-2.17,7.31-2.28c4.89-1.48,9.7-3.16,14.54-4.75,9.61-3.33,19.18-6.76,28.55-10.57s18.64-7.83,27.81-12c9.11-4.31,18.17-8.72,27-13.56s17.61-9.87,26.27-15.09,17.11-10.8,25.44-16.59c33.5-22.88,64.84-49.26,94.3-77.86q22.17-21.37,43.1-44.26c13.95-15.24,27.49-30.92,40.79-46.87s26.34-32.2,39.14-48.69,25.36-33.3,38-50.09c25.25-33.61,50-67.88,75.79-101.67,12.85-16.92,25.83-33.81,39.15-50.49s27-33.16,41-49.35,28.49-32.1,43.47-47.54c3.77-3.84,7.48-7.72,11.32-11.5l5.71-5.69,5.79-5.64c7.7-7.52,15.58-14.82,23.58-22,16-14.38,32.48-28.29,49.58-41.44s34.78-25.55,53.07-37A564.21,564.21,0,0,1,1730,397.13a459.08,459.08,0,0,1,60.2-23.62q15.43-4.77,31.15-8.41c10.48-2.38,21-4.41,31.62-6a373.56,373.56,0,0,1,63.84-3.58h.09a1.41,1.41,0,0,1,0,2.81,396.91,396.91,0,0,0-123.35,24.42c-39.55,14.45-76.88,34.6-111.69,58.27s-67.33,50.73-97.82,79.83q-22.87,21.84-44.3,45.11c-14.3,15.49-28.12,31.44-41.6,47.66-53.92,65-102,134.55-151.83,202.81-24.93,34.13-50.37,68-77.28,100.66q-20.21,24.5-41.53,48t-44.19,45.67q-22.85,22.11-47.41,42.38t-50.9,38.16c-8.76,6-17.74,11.64-26.79,17.18s-18.32,10.73-27.74,15.63-18.94,9.6-28.57,14.06-19.46,8.51-29.38,12.27-19.91,7.34-30,10.68c-5.05,1.59-10.08,3.27-15.18,4.75l-7.62,2.27-7.65,2.15c-20.42,5.72-41.07,10.46-61.81,14.74-41.5,8.47-83.36,14.68-125.17,20.81s-83.62,12.17-125,20.39S518,1245.48,478.5,1260.2s-77.59,33.28-112,57.51a353.85,353.85,0,0,0-48.2,40.57,309,309,0,0,0-39.56,49,1.4,1.4,0,0,1-2.41-1.44Z" transform="translate(0 1.11)"/><path class="cls-2" d="M108.68,1406.11l3.49-8.5,1.75-4.27c.58-1.42,1.26-2.8,1.89-4.2l3.9-8.37c1.31-2.79,2.79-5.49,4.18-8.25,2.73-5.55,5.9-10.85,9-16.23l1.15-2,1.23-2,2.46-3.94,2.47-3.94c.82-1.32,1.63-2.65,2.52-3.91a393.51,393.51,0,0,1,47.15-58l6.6-6.68,6.79-6.47,3.41-3.24,3.51-3.12,7-6.23c9.55-8.08,19.26-16,29.36-23.46a599.27,599.27,0,0,1,63.1-40.73q4.08-2.37,8.21-4.55l8.27-4.44,8.35-4.28c2.78-1.43,5.57-2.85,8.38-4.2l8.42-4.12c2.82-1.35,5.66-2.65,8.48-4,5.65-2.68,11.37-5.17,17.07-7.73s11.46-4.95,17.23-7.31,11.56-4.69,17.38-6.89c11.62-4.53,23.34-8.71,35.09-12.84s23.51-8,35.29-11.55,23.55-7.19,35.32-10.65q35.29-10.32,70.36-19.91c23.36-6.44,46.54-12.91,69.44-19.7s45.57-13.7,67.82-21.33c11.09-3.85,22.13-7.78,33-12,5.46-2.07,10.84-4.25,16.24-6.37,2.71-1,5.36-2.19,8-3.29s5.36-2.19,8-3.35a627.2,627.2,0,0,0,61.62-30.25l7.4-4.2,7.27-4.37,3.65-2.17,3.59-2.25,7.19-4.49c2.39-1.51,4.73-3.11,7.09-4.66s4.75-3.08,7-4.73c4.64-3.27,9.33-6.43,13.87-9.85a606.58,606.58,0,0,0,52.81-43.43c16.92-15.45,33.25-31.69,48.82-48.81s30.71-34.76,45.18-53.09c29-36.6,55.91-75.37,81.54-115.3q19.31-29.91,37.6-60.75l9.19-15.44c3.06-5.14,6.06-10.36,9.09-15.54l18.22-31.18c24.28-41.67,48.12-84,73.32-126l9.42-15.75,9.55-15.72,4.78-7.86,4.87-7.83c3.23-5.23,6.51-10.43,9.79-15.63s6.69-10.35,10-15.53,6.66-10.35,10.11-15.48l10.32-15.4,5.17-7.69,5.31-7.62,10.61-15.23c1.74-2.56,3.64-5,5.46-7.54l5.52-7.49,5.52-7.49,2.75-3.75,2.84-3.69,11.4-14.76c1.91-2.45,3.77-4.94,5.72-7.36l5.89-7.25,11.78-14.48c8-9.59,16.27-19,24.69-28.21l6.34-6.91,6.44-6.82c4.27-4.56,8.67-9,13-13.46,2.17-2.24,4.41-4.43,6.64-6.62l6.68-6.58c2.25-2.17,4.54-4.3,6.82-6.44s4.53-4.3,6.87-6.38c18.49-16.84,37.64-33,57.67-47.94,10.1-7.39,20.25-14.67,30.72-21.52s21-13.49,31.86-19.76a550.86,550.86,0,0,1,67.22-32.84,470.68,470.68,0,0,1,71-22.29,404.88,404.88,0,0,1,73.17-9.43h.18A2.24,2.24,0,0,1,1843,1.05a2.24,2.24,0,0,1-2,2.29,436.43,436.43,0,0,0-70.7,15A485.22,485.22,0,0,0,1703,44.69a564.52,564.52,0,0,0-63,35.65,669,669,0,0,0-58.17,43.07q-27.86,23.15-53.46,48.86c-17.08,17.08-33.3,35-48.88,53.48-3.93,4.58-7.69,9.32-11.53,14s-7.54,9.45-11.25,14.21l-11,14.46-5.47,7.23c-1.82,2.41-3.54,4.9-5.32,7.35l-10.57,14.73-2.64,3.69-2.56,3.75-5.12,7.48c-3.4,5-6.87,10-10.2,15L1394,342.83c-26.42,40.55-50.89,82.38-74.84,124.52s-47.16,84.75-70.9,127.1l-8.91,15.88-9,15.83c-3,5.27-6,10.57-9,15.82l-9.16,15.75q-18.33,31.5-37.74,62.39T1134.15,781q-20.91,29.92-43.51,58.67c-30.29,38.14-63.18,74.38-99.54,107a647,647,0,0,1-57.05,45.9c-4.92,3.62-10,7-15,10.45-2.51,1.75-5.11,3.35-7.67,5s-5.11,3.34-7.71,5l-7.82,4.78-3.92,2.38-4,2.29L880,1027l-8,4.39a672.51,672.51,0,0,1-66.25,31.14c-22.59,9.2-45.59,17.33-68.78,24.73-46.42,14.77-93.62,26.53-140.77,38s-94.29,22.8-140.65,36.61c-23.14,7-46.08,14.7-68.62,23.39-5.62,2.21-11.27,4.36-16.83,6.7-2.79,1.16-5.6,2.28-8.37,3.46l-8.32,3.6c-2.78,1.18-5.53,2.42-8.27,3.68l-8.25,3.75-8.16,3.91-4.09,2-4.05,2a597.86,597.86,0,0,0-62.83,35.87c-10.13,6.55-19.89,13.64-29.54,20.87l-7.11,5.59-3.55,2.8-3.47,2.89-6.94,5.8-6.75,6-3.38,3-3.29,3.1-6.56,6.22c-2.14,2.12-4.23,4.28-6.36,6.42l-3.17,3.22c-1.06,1.07-2,2.2-3.08,3.3l-6.12,6.65c-2,2.24-3.94,4.56-5.91,6.84-4,4.51-7.65,9.3-11.43,14a370,370,0,0,0-38.32,61.17,2.24,2.24,0,0,1-4.08-1.84Z" transform="translate(0 1.11)"/><path class="cls-3" d="M199.94,1406.07a346.93,346.93,0,0,1,34.71-62.49,382.36,382.36,0,0,1,47.16-54.8l6.59-6.26c2.21-2.08,4.5-4,6.76-6.08,4.47-4.11,9.21-7.87,13.87-11.77,2.33-2,4.76-3.75,7.14-5.64s4.76-3.78,7.22-5.54c4.89-3.59,9.76-7.23,14.78-10.64a554.73,554.73,0,0,1,62.54-37.23l4-2.1,4.08-2,8.18-4,8.25-3.81c2.75-1.27,5.51-2.54,8.29-3.74l8.32-3.64c2.78-1.2,5.58-2.33,8.38-3.5,5.57-2.37,11.22-4.53,16.84-6.77q16.92-6.54,34.14-12.22c11.45-3.86,23-7.38,34.55-10.81s23.11-6.58,34.68-9.51,23.12-5.82,34.65-8.58q34.62-8.27,68.93-15.83c22.87-5.1,45.52-10.26,67.92-15.77s44.56-11.15,66.26-17.66c43.39-13,85.26-28.48,123.9-49a553.52,553.52,0,0,0,55.89-34.1,609,609,0,0,0,51.91-40.88c16.69-14.56,32.74-30,48.23-46.2s30.43-33,44.9-50.38c29.09-34.62,56-71.57,81.84-109.52q19.45-28.47,38.08-57.75l9.35-14.66,9.25-14.78,18.55-29.61c24.74-39.58,49.12-79.82,74.76-119.59,6.34-10,12.83-19.91,19.31-29.85l4.86-7.45,5-7.42q4.93-7.43,9.94-14.81c3.33-4.92,6.78-9.8,10.16-14.71s6.76-9.81,10.23-14.67l10.44-14.57,5.22-7.28,5.35-7.21,10.72-14.41c1.76-2.42,3.63-4.77,5.49-7.13l5.55-7.08c3.73-4.71,7.37-9.46,11.16-14.12l11.46-13.93,5.73-7,5.9-6.84,11.82-13.65c3.91-4.57,8.09-9,12.14-13.46s8.27-8.82,12.48-13.16,8.41-8.69,12.74-12.92l6.44-6.38,6.55-6.28c4.34-4.21,8.82-8.29,13.26-12.39,2.2-2.07,4.48-4.07,6.75-6.06l6.81-6c18.35-15.79,37.35-30.83,57.15-44.75,2.45-1.78,5-3.43,7.5-5.14s5-3.41,7.53-5.07l7.63-4.92,3.81-2.46,3.87-2.37,7.74-4.74c2.59-1.57,5.23-3.06,7.84-4.59l3.92-2.27q2-1.16,4-2.22l8-4.32c2.64-1.46,5.36-2.81,8-4.18l8.09-4.1,8.2-3.9,4.09-1.94c1.37-.64,2.76-1.23,4.14-1.85l8.29-3.67c2.76-1.22,5.59-2.3,8.38-3.44,5.57-2.32,11.26-4.37,16.92-6.46a425.86,425.86,0,0,1,69.63-18.74,368,368,0,0,1,71.21-5.51h.17a2.17,2.17,0,0,1,2.13,2.23,2.21,2.21,0,0,1-2,2.13,393.7,393.7,0,0,0-69,11.07c-5.62,1.55-11.3,2.91-16.85,4.7l-8.37,2.55-8.28,2.82-4.14,1.4-4.1,1.53-8.19,3.07c-2.72,1.06-5.4,2.21-8.1,3.3s-5.42,2.18-8.07,3.4c-42.8,18.65-82.7,43.61-119.49,72.33q-27.59,21.6-53,45.75t-48.7,50.4c-15.59,17.42-30.27,35.65-44.61,54.13l-10.66,13.93c-3.54,4.66-6.92,9.44-10.39,14.15l-5.18,7.09c-1.72,2.36-3.45,4.71-5.11,7.13L1474.2,421.4c-26.73,38.44-51.66,78.15-76.1,118.16s-48.2,80.49-72.42,120.73c-6.07,10-12.1,20.12-18.26,30.12l-9.2,15-9.32,15q-18.6,29.94-38.23,59.28t-40.54,57.78c-7,9.49-14.11,18.85-21.32,28.16s-14.61,18.47-22.17,27.52c-30.13,36.21-62.77,70.49-98.56,101.33a651.26,651.26,0,0,1-56.13,43.22,557.19,557.19,0,0,1-61,36.14A605.5,605.5,0,0,1,886,1102c-11.06,4.13-22.27,7.83-33.5,11.43-5.63,1.72-11.25,3.52-16.92,5.13L827,1121l-8.52,2.35c-22.73,6.23-45.66,11.59-68.64,16.57s-46.06,9.43-69.11,13.84c-46.1,8.85-92.23,17.4-137.66,28.57-22.69,5.66-45.19,12.07-67.35,19.48s-44,15.77-65.27,25.4l-8,3.62-7.89,3.78c-5.29,2.46-10.44,5.21-15.65,7.83-10.31,5.47-20.54,11.08-30.47,17.22-5,3-9.88,6.19-14.78,9.35-2.47,1.55-4.82,3.27-7.24,4.9s-4.84,3.26-7.18,5c-4.69,3.46-9.45,6.83-14,10.48-2.28,1.81-4.62,3.56-6.86,5.41l-6.72,5.59c-2.27,1.84-4.43,3.79-6.61,5.73s-4.37,3.86-6.51,5.83l-6.33,6c-1,1-2.12,2-3.16,3l-3.06,3.12-6.11,6.25-5.89,6.46-3,3.23-2.83,3.32-5.65,6.67a368.42,368.42,0,0,0-38.81,58.07,2.19,2.19,0,0,1-3.94-1.88Z" transform="translate(0 1.11)"/><path class="cls-4" d="M381.31,1405.77l3.9-6.21,2-3.12c.66-1,1.38-2,2.06-3l4.2-6c1.41-2,2.94-3.93,4.4-5.91,2.91-4,6.08-7.73,9.2-11.55l1.17-1.43,1.22-1.39,2.45-2.77c1.65-1.83,3.24-3.74,4.95-5.51,3.43-3.55,6.82-7.17,10.44-10.54,1.79-1.7,3.55-3.45,5.38-5.11l5.54-5c1.82-1.68,3.73-3.26,5.64-4.84s3.8-3.19,5.73-4.76l5.87-4.57,2.94-2.28,3-2.19,6-4.39,6.16-4.2,3.08-2.1,3.15-2,6.31-4c8.52-5.1,17.15-10.1,26-14.6a478.85,478.85,0,0,1,54.64-23.88c2.33-.89,4.66-1.73,7-2.53l7-2.43c4.73-1.51,9.43-3.13,14.19-4.55l7.12-2.16c2.38-.71,4.77-1.37,7.16-2,4.76-1.4,9.56-2.63,14.36-3.92q14.4-3.74,29-6.8c9.68-2.11,19.42-3.93,29.16-5.7,19.51-3.43,38.92-6.11,58.36-8.68s38.8-4.83,58.08-7l28.85-3.38,14.35-1.79,7.17-.9,7.14-1,14.27-1.91,14.19-2.09,7.09-1c2.36-.35,4.7-.78,7-1.17l14.07-2.37c4.68-.84,9.31-1.79,14-2.68s9.31-1.76,13.89-2.85l13.8-3.07c2.31-.47,4.56-1.11,6.84-1.67l6.82-1.74c9.14-2.17,18-5,27-7.62,1.11-.34,2.25-.63,3.34-1l3.3-1.14,6.59-2.25,6.6-2.26c1.09-.38,2.2-.74,3.29-1.14l3.22-1.27,12.91-5.1,3.23-1.26,3.18-1.37,6.36-2.75c2.11-.92,4.2-1.93,6.3-2.89s4.21-1.9,6.27-3c4.14-2.07,8.32-4,12.4-6.25a493.74,493.74,0,0,0,47.87-28.52c31.06-20.64,60.18-44.59,87.73-70.46q20.71-19.35,40.36-40.07c13.11-13.78,25.83-28,38.41-42.4,25.2-28.75,49.15-58.89,73.24-89.18s47.83-61.13,72.49-91.47l9.23-11.4,9.33-11.35,4.67-5.67,4.73-5.63,9.49-11.25c3.18-3.74,6.44-7.43,9.66-11.15s6.41-7.43,9.71-11.1l9.86-11,4.94-5.49,5-5.42,10.08-10.83c3.37-3.6,6.88-7.09,10.31-10.63l5.18-5.3c1.72-1.77,3.45-3.53,5.23-5.25l10.61-10.37c1.78-1.72,3.51-3.47,5.32-5.16l5.44-5.06,10.88-10.11q11-10,22.51-19.51l5.74-4.74,5.82-4.66c3.85-3.13,7.8-6.14,11.73-9.17s8-6,11.92-8.93l6.07-4.33c2-1.43,4-2.9,6.09-4.28,16.37-11.27,33.19-21.88,50.56-31.52a533.06,533.06,0,0,1,53.65-25.83A437.82,437.82,0,0,1,1802,505.69a394.48,394.48,0,0,1,58.33-10.27c9.83-.76,19.65-1.36,29.47-1.32,2.46,0,4.91-.06,7.36,0l7.35.23c2.45.06,4.89.25,7.33.43l7.31.54h.05a1.31,1.31,0,0,1-.12,2.61,350.37,350.37,0,0,0-57.89,3.53,391.33,391.33,0,0,0-56.56,12.87,452.79,452.79,0,0,0-54.17,20.8,533.71,533.71,0,0,0-51.27,27.25c-16.57,10-32.65,20.86-48.22,32.38s-30.59,23.8-45.14,36.59c-3.67,3.17-7.21,6.47-10.81,9.71s-7.1,6.6-10.62,9.93L1574,661.16l-5.2,5.08c-1.73,1.7-3.39,3.47-5.09,5.2l-10.14,10.42c-1.71,1.72-3.36,3.49-5,5.28l-5,5.32c-3.29,3.57-6.63,7.08-9.87,10.68L1524,714c-25.78,29-50.15,59.25-74.08,89.84s-47.35,61.6-71.15,92.35q-8.91,11.53-17.92,23c-6,7.67-12,15.26-18.13,22.86q-18.23,22.79-37.24,45t-39,43.43q-20.09,21.24-41.34,41.32c-28.48,26.6-58.78,51.38-91.39,72.87a519.21,519.21,0,0,1-50.53,29.56c-4.32,2.28-8.75,4.34-13.14,6.48-2.18,1.09-4.43,2-6.65,3.06s-4.43,2-6.68,3l-6.75,2.85-3.37,1.42-3.43,1.3-13.69,5.2-3.43,1.3c-1.15.41-2.31.77-3.47,1.16l-7,2.28-7,2.28-3.48,1.14c-1.16.39-2.34.68-3.51,1-9.4,2.62-18.75,5.46-28.27,7.59l-7.11,1.72c-2.37.56-4.73,1.19-7.12,1.65l-14.32,3c-4.76,1-9.57,1.84-14.37,2.69s-9.59,1.74-14.39,2.51c-38.49,6.12-77.23,10-115.93,13.61-19.35,1.8-38.69,3.6-58,5.58s-38.59,4.25-57.78,7c-38.34,5.66-76.38,13.8-113.21,25.82A476.88,476.88,0,0,0,517.09,1299c-8.81,4-17.39,8.49-25.9,13.09l-6.3,3.6-3.14,1.8-3.1,1.9-6.19,3.78-6.06,4a320.91,320.91,0,0,0-45.33,36.08,297.74,297.74,0,0,0-37.61,44.06,1.3,1.3,0,0,1-2.17-1.44Z" transform="translate(0 1.11)"/><path class="cls-2" d="M431.54,1406l3.73-5.94c1.24-2,2.47-4,3.82-5.9l4-5.78,1-1.44,1.06-1.41,2.14-2.81c5.61-7.57,11.81-14.7,18.15-21.77a303.15,303.15,0,0,1,42.88-37.73c31-22.53,66.12-39.39,102.46-51.62,4.53-1.62,9.13-2.94,13.7-4.4l6.91-2c2.3-.67,4.6-1.34,6.92-1.94l6.94-1.86c2.32-.61,4.65-1.16,7-1.74,4.65-1.19,9.32-2.2,14-3.28q14-3.07,28.16-5.41c9.42-1.62,18.86-3,28.32-4.21s18.82-2.18,28.23-3.14c4.7-.45,9.37-.82,14-1.23s9.37-.82,14-1.15c18.69-1.45,37.2-2.69,55.63-3.79l13.76-.88c4.59-.3,9.17-.59,13.71-.93l13.66-1,13.56-1.14c9.06-.69,18-1.64,26.94-2.48,4.45-.48,8.88-1,13.32-1.55l6.65-.79c2.21-.27,4.39-.63,6.59-.94l13.15-1.91c4.35-.73,8.67-1.54,13-2.3l6.49-1.15c2.15-.41,4.28-.88,6.42-1.32l12.8-2.66,12.6-3.16,6.3-1.58,6.18-1.85,12.35-3.69,12.07-4.28a384.37,384.37,0,0,0,47-20.35,459.53,459.53,0,0,0,44.7-26.2c14.54-9.55,28.78-19.73,42.57-30.67s27.26-22.43,40.43-34.38c105.81-95.7,190-218.76,296.63-325.94l10-10,2.51-2.49,2.58-2.44,5.16-4.88,10.34-9.74,10.56-9.55c14.12-12.66,28.58-25.06,43.76-36.71,7.59-5.8,15.23-11.53,23-17l5.86-4.13,5.92-4c3.92-2.73,8-5.25,12-7.85s8.12-5.06,12.18-7.57,8.2-4.92,12.37-7.26,8.31-4.72,12.55-7c2.11-1.12,4.2-2.28,6.32-3.38l6.41-3.23a465.09,465.09,0,0,1,52.74-22.57,378.62,378.62,0,0,1,55.23-15.21,318.52,318.52,0,0,1,56.67-6c2.36-.09,4.74,0,7.1,0s4.73,0,7.09.16c4.73.27,9.43.41,14.12.9,2.35.22,4.69.39,7,.66l7,.89c1.16.17,2.33.31,3.48.5l3.47.61,6.91,1.23.11,0a1.85,1.85,0,0,1,1.5,2.14,1.87,1.87,0,0,1-2,1.52,294.09,294.09,0,0,0-55,0,325.76,325.76,0,0,0-54.17,9.84,385,385,0,0,0-52,18.08A463.94,463.94,0,0,0,1707,646.43c-16,9.15-31.52,19-46.53,29.68s-29.57,21.95-43.68,33.79c-28.11,23.81-54.45,49.73-79.68,76.63s-49.27,55-72.89,83.42-46.8,57.24-70.27,85.86c-11.76,14.29-23.53,28.58-35.53,42.69s-24.11,28.14-36.5,41.92c-24.8,27.56-50.7,54.2-78.16,79.23s-56.75,48.13-88.07,68.28a494.06,494.06,0,0,1-48.53,27.64c-4.14,2.14-8.4,4-12.61,6-2.11,1-4.26,1.89-6.39,2.84s-4.25,1.92-6.42,2.77c-4.32,1.75-8.61,3.58-13,5.17-2.19.81-4.36,1.66-6.55,2.45l-6.64,2.21-13.27,4.39-13.47,3.76-6.73,1.86-6.81,1.57-13.61,3.13L988,1254.33c-2.28.42-4.56.88-6.86,1.27l-6.89,1c-4.6.69-9.19,1.42-13.79,2.07l-13.84,1.65c-2.31.26-4.61.57-6.92.8l-6.93.64c-4.62.42-9.24.88-13.87,1.26-9.25.61-18.5,1.39-27.76,1.81l-13.88.72-13.88.56c-9.26.39-18.51.64-27.76,1-37,1.14-73.94,2-110.68,5-18.36,1.56-36.65,3.81-54.8,6.87a533.87,533.87,0,0,0-53.86,11.93l-6.64,1.86-6.6,2-3.29,1-3.28,1.08-6.54,2.17c-8.66,3.06-17.3,6.22-25.73,9.86a346.44,346.44,0,0,0-48.92,25.25,308.36,308.36,0,0,0-43.88,33.18,298.88,298.88,0,0,0-36.86,40.85,1.85,1.85,0,0,1-3-2.08Z" transform="translate(0 1.11)"/><path class="cls-3" d="M463.21,1405.37a255.5,255.5,0,0,1,36-38.48q10-8.66,20.92-16.35t22.36-14.43A333.46,333.46,0,0,1,590.57,1313a443.23,443.23,0,0,1,50.79-16.27c34.48-8.75,69.78-13.75,105.1-16.27,17.69-1.29,35.23-1.91,52.79-2.37s35-.7,52.41-.84,34.73-.38,52-.88c8.62-.24,17.21-.51,25.79-.87s17.11-.84,25.61-1.48c17-1.17,33.9-3,50.6-5.38a476.45,476.45,0,0,0,49.33-9.78,423,423,0,0,0,47.5-15.29,462.48,462.48,0,0,0,45.57-20.85q22.26-11.7,43.57-25.4c14.17-9.16,28-18.93,41.53-29.18a954.18,954.18,0,0,0,78.05-66.22q18.84-17.52,37.13-35.81c12.23-12.17,24.27-24.58,36.39-37,24.21-24.84,48.13-50.19,72.76-75.07,12.3-12.45,24.69-24.86,37.33-37.09s25.52-24.22,38.67-36a872.8,872.8,0,0,1,82.94-66.15c14.56-10.11,29.47-19.75,44.8-28.7s31.09-17.22,47.25-24.63a456.81,456.81,0,0,1,49.72-19.26c8.47-2.7,17-5.14,25.65-7.26q6.46-1.6,13-2.95c4.36-.85,8.72-1.68,13.1-2.38a326,326,0,0,1,52.87-4.3,290.58,290.58,0,0,1,52.43,5.09h.07a1.07,1.07,0,0,1-.35,2.12,308.65,308.65,0,0,0-103.49,4.45c-34,7.13-66.74,19.43-97.76,35s-60.49,34.23-88.48,54.81q-21,15.45-41,32.25t-39,34.58c-50.94,47.4-97.73,99.06-145.76,149.53-24,25.23-48.36,50.23-73.76,74.15q-19,18-38.88,35c-13.26,11.35-26.79,22.39-40.73,32.91s-28.26,20.55-43,30-29.85,18.2-45.38,26.24a482.38,482.38,0,0,1-47.85,21.46,425,425,0,0,1-50.07,15.64,499.31,499.31,0,0,1-51.54,9.6q-26,3.43-52.16,4.8c-34.86,2-69.75,1.73-104.58,1.42s-69.65-.75-104.38.75-69.36,5.46-103.28,12.88-67.14,18.4-97.85,34.59a288.51,288.51,0,0,0-43.65,28.15c-6.83,5.34-13.37,11.05-19.65,17s-12.21,12.32-17.86,18.9a1.07,1.07,0,0,1-1.67-1.34Z" transform="translate(0 1.11)"/><path class="cls-2" d="M535.87,1405.76l4-4.75c1.32-1.58,2.62-3.19,4-4.7,2.78-3,5.53-6.14,8.48-9,1.46-1.47,2.89-3,4.39-4.41l4.53-4.25,2.27-2.13,2.35-2,4.71-4.1c6.45-5.23,13.06-10.34,20-15,3.42-2.41,7-4.59,10.51-6.83,1.75-1.15,3.59-2.13,5.39-3.21s3.59-2.15,5.44-3.13a295.52,295.52,0,0,1,45.9-20.47l6-2.06,6-1.92,3-1,3-.87,6.05-1.76c8.11-2.16,16.26-4.24,24.48-5.9a462.43,462.43,0,0,1,49.75-7.33q12.51-1.15,25.06-1.7c8.35-.4,16.71-.57,25.07-.62s16.63.14,24.94.3l12.4.42q6.21.21,12.38.5c16.5.73,32.85,1.65,49.17,2.63,8.12.43,16.28,1,24.36,1.3l12.14.58,12.1.42,6,.22,6,.13,12,.25h12c2,0,4,0,6,0l6-.17c4-.12,7.95-.19,11.9-.36l11.83-.71c2-.13,3.95-.19,5.91-.39l5.86-.54c3.91-.39,7.84-.67,11.72-1.14,7.74-1.1,15.54-1.89,23.16-3.45l5.74-1c1.9-.38,3.84-.63,5.71-1.12l11.32-2.63,2.82-.66,1.42-.33,1.39-.41,5.57-1.62c3.72-1.09,7.45-2.1,11.15-3.21l11-3.79,5.51-1.88c1.82-.67,3.62-1.44,5.43-2.15l10.84-4.34c1.82-.68,3.58-1.55,5.36-2.35l5.33-2.43,5.34-2.43,2.66-1.21,2.63-1.33,10.48-5.33,2.62-1.33c.87-.44,1.75-.88,2.6-1.37l5.16-2.86,10.33-5.72,10.14-6.11c3.37-2.06,6.79-4,10.08-6.23,6.62-4.35,13.33-8.54,19.8-13.18l9.78-6.8,9.62-7.08c12.89-9.36,25.41-19.35,37.84-29.46,3.09-2.54,6.14-5.16,9.22-7.74s6.16-5.14,9.18-7.8l9.09-8,4.54-4,4.51-4c6-5.38,12-10.74,18-16.25l8.91-8.22,8.85-8.34c11.81-11.11,23.48-22.45,35.24-33.73,23.46-22.64,46.79-45.66,70.77-68.21q17.92-17,36.33-33.58,9.26-8.25,18.62-16.41l9.45-8.08c3.14-2.69,6.29-5.38,9.51-8l9.61-7.92c3.17-2.66,6.5-5.17,9.76-7.75l9.81-7.69,10-7.48c6.6-5.06,13.48-9.8,20.26-14.64s13.82-9.39,20.83-13.94c28.19-18,57.86-33.77,89-46.13,3.87-1.58,7.83-3,11.74-4.45s7.91-2.77,11.87-4.11l6-1.91,3-1,3-.88,6-1.76c2-.57,4-1.08,6.07-1.62,8.08-2.17,16.26-4,24.46-5.58l6.18-1.1c1-.18,2.06-.39,3.09-.54l3.11-.44,6.21-.87,6.23-.68a285.6,285.6,0,0,1,49.95-1.07c2.07.09,4.14.36,6.2.55s4.14.38,6.19.66c4.12.59,8.23,1,12.3,1.84a226.73,226.73,0,0,1,24.14,5.48h0a1.11,1.11,0,0,1,.79,1.37,1.13,1.13,0,0,1-1.3.81l-6-1.18-3-.58c-1-.18-2-.32-3-.48l-6-.94c-2-.28-4-.48-6.07-.73-4-.54-8.1-.75-12.16-1.1-2-.16-4.06-.19-6.09-.29s-4.07-.21-6.11-.19a282.15,282.15,0,0,0-48.66,3.51l-6,1-6,1.15-3,.57-3,.65-6,1.33c-7.91,1.91-15.8,4-23.57,6.42-2,.61-3.9,1.19-5.83,1.82l-5.79,2-2.9,1-2.87,1-5.74,2.1c-3.8,1.48-7.6,2.93-11.37,4.49s-7.54,3.1-11.24,4.8c-29.85,13.14-58.25,29.46-85.24,47.77s-52.48,38.86-77.16,60.25-48.41,43.91-71.81,66.74-46.45,46.06-69.72,69.09-46.76,45.85-71.07,67.83l-4.55,4.13-4.62,4.06-9.22,8.13c-3.07,2.71-6.23,5.32-9.35,8s-6.23,5.33-9.39,7.94c-12.68,10.39-25.47,20.66-38.72,30.35l-9.92,7.28-10.13,7c-6.69,4.76-13.67,9.09-20.55,13.57-3.41,2.28-7,4.32-10.49,6.44l-10.58,6.32-10.79,5.94-5.4,3c-1.79,1-3.66,1.87-5.49,2.8l-11,5.5-2.76,1.37-2.82,1.26-5.63,2.5-5.63,2.51c-1.88.82-3.73,1.72-5.66,2.43l-11.49,4.49c-1.92.74-3.82,1.53-5.76,2.22l-5.85,2-11.7,3.91c-4,1.15-7.93,2.21-11.89,3.32l-6,1.64-1.48.41-1.51.33-3,.66-12.06,2.64c-2,.49-4,.74-6.06,1.11l-6.09,1c-8.09,1.52-16.28,2.26-24.43,3.31-4.09.44-8.19.68-12.28,1l-6.14.48c-2,.18-4.1.2-6.15.31l-12.31.52c-4.1.1-8.2.1-12.31.16l-6.15.06c-2.05,0-4.1-.06-6.15-.09l-12.3-.2-12.29-.47-6.14-.24-6.14-.35-12.27-.69-12.25-.85c-8.18-.54-16.33-1.24-24.49-1.85-16.31-1.29-32.62-2.67-48.92-3.81-4.07-.31-8.15-.56-12.23-.81l-12.23-.73c-8.16-.34-16.32-.82-24.47-1-32.61-.79-65.33.81-97.48,6.22-8.05,1.28-16,3-24,4.73l-5.93,1.45-3,.73-2.94.8-5.9,1.61-5.84,1.76a305,305,0,0,0-45.41,17.87,272.3,272.3,0,0,0-41.65,25.37,266.1,266.1,0,0,0-36.19,32.72,1.12,1.12,0,0,1-1.69-1.48Z" transform="translate(0 1.11)"/><path class="cls-4" d="M691.32,1406.18c2.53-2.49,5-5,7.61-7.49l4-3.6c1.31-1.21,2.64-2.4,4-3.54,2.73-2.3,5.44-4.65,8.29-6.82l4.23-3.33,4.35-3.18c5.83-4.23,11.94-8,18.15-11.77s12.64-7.08,19.25-10.12a234.28,234.28,0,0,1,41.14-14.89c7.09-1.84,14.26-3.42,21.5-4.61,3.62-.67,7.25-1.14,10.89-1.66,1.82-.25,3.64-.43,5.47-.65s3.65-.42,5.48-.56l5.49-.46,5.5-.31c1.83-.11,3.66-.18,5.5-.22l5.5-.15q11-.12,22,.41a376.85,376.85,0,0,1,43.62,5c14.35,2.4,28.39,5.49,42.29,8.71s27.63,6.56,41.22,9.85,27.08,6.31,40.5,8.84c6.71,1.25,13.38,2.43,20,3.44s13.32,1.79,20,2.43,13.24,1,19.81,1.19,13.13.17,19.64-.16,13-.8,19.42-1.65c3.22-.36,6.42-.92,9.63-1.41,1.6-.24,3.19-.59,4.79-.88s3.2-.56,4.8-.94a315.18,315.18,0,0,0,38-10.63c12.54-4.38,24.94-9.47,37.15-15.15A621.77,621.77,0,0,0,1322,1302.4c23.29-14.58,46-30.42,68.42-46.89s44.61-33.56,66.87-50.75,44.51-34.64,67.25-51.64c11.35-8.52,22.78-17,34.34-25.34s23.32-16.47,35.2-24.45,24-15.75,36.25-23.19,24.77-14.66,37.55-21.36,25.76-13.07,39-18.84,26.84-11,40.68-15.43a344.5,344.5,0,0,1,42.34-10.63q10.77-2,21.67-3.07a199.66,199.66,0,0,1,21.87-1.06,188.92,188.92,0,0,1,43.31,5q5.29,1.29,10.46,2.94c3.45,1.08,6.85,2.3,10.2,3.62s6.65,2.75,9.89,4.27,6.38,3.25,9.49,5l.07,0a1.22,1.22,0,0,1,.47,1.66,1.23,1.23,0,0,1-1.58.51,157.5,157.5,0,0,0-40-12.37,183.21,183.21,0,0,0-41.85-2.08,243,243,0,0,0-41.52,6.3,332.77,332.77,0,0,0-40.2,12.41c-26.31,9.85-51.57,22.41-76,36.43s-47.92,29.56-70.86,45.9c-45.9,32.69-89.59,68.41-133.75,103.56-22.08,17.57-44.26,35-66.93,51.93s-45.82,33.12-69.75,48.23a635.84,635.84,0,0,1-74.53,40.66c-25.82,11.66-52.77,21.21-80.72,26.6-1.74.37-3.5.62-5.25.94s-3.5.63-5.26.87c-3.53.47-7,1-10.59,1.36-7.07.82-14.17,1.23-21.28,1.45s-14.22.06-21.32-.23-14.17-1-21.23-1.75c-28.22-3.27-55.83-10-83.08-17.33s-54.34-15.27-81.86-21-55.61-8.71-83.63-7.45c-1.75,0-3.5.16-5.25.27s-3.5.21-5.24.36c-3.49.33-7,.59-10.46,1.06-7,.79-13.87,2-20.74,3.35a238,238,0,0,0-40.24,12c-6.54,2.52-12.89,5.51-19.19,8.59-1.56.79-3.1,1.63-4.65,2.44s-3.12,1.61-4.63,2.51c-3,1.76-6.11,3.44-9.06,5.34A265.32,265.32,0,0,0,692.93,1408a1.22,1.22,0,0,1-1.66-1.79Z" transform="translate(0 1.11)"/></svg>