<svg id="Layer_1" data-name="Layer 1" xmlns="http://www.w3.org/2000/svg" viewBox="0 0 117.6 144.03"><defs><style>.cls-1{fill:#0b3453;}.cls-2{fill:#98ca3f;}</style></defs><title>gift-icon</title><rect class="cls-1" y="26.43" width="117.6" height="117.6"/><rect class="cls-2" x="44.98" y="26.43" width="27.64" height="117.6"/><rect class="cls-2" x="44.98" y="26.43" width="27.64" height="117.6" transform="translate(-26.43 144.03) rotate(-90)"/><path class="cls-1" d="M58.4,18.18c-2.35,4.19-14.56,3.06-23.63-.38S20.26,8.18,22.61,4s11.6-4.8,20.67-1.36S60.75,14,58.4,18.18Z"/><ellipse class="cls-2" cx="30.18" cy="26.18" rx="8.57" ry="17.62" transform="translate(-4.08 46.74) rotate(-71.9)"/><path class="cls-2" d="M34.82,17.82C25.75,14.38,20.3,8.19,22.65,4a4.41,4.41,0,0,1,.5-.72L23,3.21,13.64,19.9,46.56,32.39l11.88-14.2C56.09,22.39,43.88,21.26,34.82,17.82Z"/><path class="cls-2" d="M58.78,17.41a3.84,3.84,0,0,1-.34.78V17.05Z"/><path class="cls-1" d="M59,18.57c2.34,4.19,14.39,2.28,23.46-1.16S97,7.78,94.62,3.59,83-1.21,74,2.23,56.65,14.38,59,18.57Z"/><ellipse class="cls-2" cx="87.05" cy="25.79" rx="17.62" ry="8.57" transform="translate(-3.7 28.32) rotate(-18.1)"/><path class="cls-2" d="M82.41,17.42C91.48,14,96.93,7.8,94.58,3.61a4.49,4.49,0,0,0-.5-.73l.16-.06,9.35,16.69L70.67,32,59,18.59C61.3,22.78,73.35,20.86,82.41,17.42Z"/><path class="cls-2" d="M58.61,17.8a5,5,0,0,0,.34.79l-.42-.76Z"/><path class="cls-2" d="M28.42,57.64l1.43,8.59a1.23,1.23,0,0,0,2.14.6L57.87,36.5a1.22,1.22,0,0,0-.28-1.82L42.66,25.35a1.22,1.22,0,0,0-1.58.24L15.27,55.83a1.22,1.22,0,0,0,1.06,2l10.75-1.21A1.21,1.21,0,0,1,28.42,57.64Z"/><rect class="cls-2" x="45.53" y="17.05" width="26.47" height="21.78" rx="9.5" ry="9.5"/><path class="cls-2" d="M88.82,58l-1.26,7.56a1.56,1.56,0,0,1-2.72.75L59.68,36.8A1.57,1.57,0,0,1,60,34.47l14.35-9a1.58,1.58,0,0,1,2,.31l25.06,29.37a1.56,1.56,0,0,1-1.36,2.56l-9.58-1.08A1.57,1.57,0,0,0,88.82,58Z"/></svg>