<svg id="Layer_1" data-name="Layer 1" xmlns="http://www.w3.org/2000/svg" viewBox="0 0 147.4 189.16"><defs><style>.cls-1{fill:#0b3453;}.cls-2{fill:#98ca3d;}</style></defs><title>icon-impact-analysis</title><path class="cls-1" d="M37.53,59.9l-37,97.92A8.41,8.41,0,0,0,8.42,169.2h74a8.41,8.41,0,0,0,7.87-11.38l-37-97.92A8.41,8.41,0,0,0,37.53,59.9Z"/><circle class="cls-1" cx="45.39" cy="21.7" r="21.7"/><polygon class="cls-2" points="62.52 149.83 34.17 189.16 46.88 139.09 62.52 149.83"/><polygon class="cls-2" points="104.26 113.81 75.91 153.14 72.28 139.85 88.63 103.07 104.26 113.81"/><polygon class="cls-2" points="72.81 157.44 46.88 139.09 49.88 127.12 81.65 145.18 72.81 157.44"/><polygon class="cls-2" points="139.92 86.47 116.97 118.3 113.35 105.02 129.82 80.38 139.92 86.47"/><polygon class="cls-2" points="113.87 122.61 88.63 103.07 95.1 88.08 122.71 110.34 113.87 122.61"/><polygon class="cls-2" points="146.41 113.91 135.31 83.71 103.27 87.86 147.4 63.52 146.41 113.91"/></svg>