<svg id="Layer_1" data-name="Layer 1" xmlns="http://www.w3.org/2000/svg" viewBox="0 0 240.55 169.2"><defs><style>.cls-1{fill:#0b3453;}.cls-2{fill:none;stroke:#0b3453;stroke-miterlimit:10;stroke-width:7.23px;}.cls-3{fill:#98ca3d;}</style></defs><title>icon-visual-reporting</title><path class="cls-1" d="M27.73,88.42.41,160.79a6.21,6.21,0,0,0,5.81,8.41H60.87a6.22,6.22,0,0,0,5.82-8.41L39.36,88.42A6.22,6.22,0,0,0,27.73,88.42Z"/><path class="cls-1" d="M116.49,59.9l-37,97.92a8.41,8.41,0,0,0,7.87,11.38h74a8.41,8.41,0,0,0,7.87-11.38l-37-97.92A8.41,8.41,0,0,0,116.49,59.9Z"/><path class="cls-1" d="M206,98l-24,63.57a5.46,5.46,0,0,0,5.11,7.39h48a5.46,5.46,0,0,0,5.1-7.39L216.19,98A5.46,5.46,0,0,0,206,98Z"/><line class="cls-2" x1="40.56" y1="57.05" x2="108.41" y2="26.94"/><line class="cls-2" x1="140.75" y1="26.38" x2="204.97" y2="68.64"/><circle class="cls-3" cx="33.55" cy="60.19" r="16.04"/><circle class="cls-3" cx="124.35" cy="21.7" r="21.7"/><circle class="cls-3" cx="211.08" cy="73.22" r="14.09"/></svg>