<svg id="Layer_1" data-name="Layer 1" xmlns="http://www.w3.org/2000/svg" viewBox="0 0 140.02 178.09"><defs><style>.cls-1{fill:#0b3453;}.cls-2{fill:#98ca3d;}</style></defs><title>icon-custom-marketing</title><path class="cls-1" d="M37.53,59.9l-37,97.92A8.41,8.41,0,0,0,8.42,169.2h74a8.41,8.41,0,0,0,7.87-11.38l-37-97.92A8.41,8.41,0,0,0,37.53,59.9Z"/><circle class="cls-1" cx="45.39" cy="21.7" r="21.7"/><path class="cls-2" d="M137.53,84.6,140,88.15q-15.2,11.43-33.79,35.21T77.83,167.8l-5.25,3.55a89.13,89.13,0,0,0-8.88,6.74,110.11,110.11,0,0,0-4-10.93l-2-4.62q-4.26-9.93-7.92-14.69a17.75,17.75,0,0,0-8.19-6.32q7.66-8.09,14-8.09,5.46,0,12.14,14.84l2.2,5a206.35,206.35,0,0,1,30.81-39.33Q119.57,94.82,137.53,84.6Z"/></svg>