<svg id="Layer_1" data-name="Layer 1" xmlns="http://www.w3.org/2000/svg" xmlns:xlink="http://www.w3.org/1999/xlink" viewBox="0 0 186.13 62.54"><defs><style>.cls-1{fill:#005b90;}.cls-2{fill:#e1c506;}.cls-3{fill:#d67e1c;}.cls-4{fill:#f1ba15;}.cls-5{fill:#f7d700;}.cls-6{fill:#0066a0;}.cls-7{fill:#d25d1e;}.cls-8{fill:#ea8920;}.cls-9{fill:#231f20;}.cls-10,.cls-11,.cls-12,.cls-13,.cls-14,.cls-15{opacity:0.2;}.cls-10{fill:url(#radial-gradient);}.cls-11{fill:url(#radial-gradient-2);}.cls-12{fill:url(#radial-gradient-3);}.cls-13{fill:url(#radial-gradient-4);}.cls-14{fill:url(#radial-gradient-5);}.cls-15{fill:url(#radial-gradient-6);}</style><radialGradient id="radial-gradient" cx="138.71" cy="-2158.29" r="16.39" gradientTransform="translate(0 294.83) scale(1 0.12)" gradientUnits="userSpaceOnUse"><stop offset="0" stop-color="#231f20"/><stop offset="0.08" stop-color="#231f20" stop-opacity="0.8"/><stop offset="0.33" stop-color="#231f20" stop-opacity="0.35"/><stop offset="0.61" stop-color="#231f20" stop-opacity="0.08"/><stop offset="1" stop-color="#231f20" stop-opacity="0"/></radialGradient><radialGradient id="radial-gradient-2" cx="126.33" cy="-2157.2" r="16.39" xlink:href="#radial-gradient"/><radialGradient id="radial-gradient-3" cx="101.52" cy="-2157.2" r="16.39" xlink:href="#radial-gradient"/><radialGradient id="radial-gradient-4" cx="78.85" cy="-2157.2" r="16.39" xlink:href="#radial-gradient"/><radialGradient id="radial-gradient-5" cx="51.84" cy="-2157.2" r="16.39" xlink:href="#radial-gradient"/><radialGradient id="radial-gradient-6" cx="28.11" cy="-2158.29" r="16.39" xlink:href="#radial-gradient"/></defs><title>logo-a-neal-accounting</title><rect class="cls-1" x="45.77" width="14.67" height="45.47"/><rect class="cls-2" x="70.65" width="14.67" height="45.47"/><rect class="cls-3" x="120.22" width="14.67" height="45.47"/><polygon class="cls-4" points="110.12 10.19 124.51 10.19 130.02 0 110.12 0 110.12 0 95.45 0 95.45 0 95.45 10.19 95.45 17.64 95.45 27.83 95.45 45.47 110.12 45.47 110.12 27.83 124.51 27.83 130.02 17.64 110.12 17.64 110.12 10.19"/><polygon class="cls-5" points="60.44 45.82 45.77 45.82 70.54 0 85.21 0 60.44 45.82"/><polygon class="cls-6" points="35.7 45.47 21.04 45.47 45.81 0 60.47 0 35.7 45.47"/><polygon class="cls-4" points="95.45 45.47 95.45 35.27 130.02 35.27 124.51 45.47 95.45 45.47"/><polygon class="cls-5" points="85.31 45.47 70.65 45.47 95.45 0 110.12 0 85.31 45.47"/><polygon class="cls-7" points="140.44 35.27 159.66 0 144.99 0 120.22 45.47 126.08 45.47 134.89 45.47 155.14 45.47 160.65 35.27 140.44 35.27"/><polygon class="cls-8" points="110.12 45.47 95.45 45.47 120.22 0 134.89 0 110.12 45.47"/><path class="cls-9" d="M4.87,60v-.1l.14,0a1.36,1.36,0,0,0,.25-.07.83.83,0,0,0,.22-.14.31.31,0,0,0,.1-.24,1.8,1.8,0,0,0,0-.3c0-.14-.1-.31-.16-.51s-.15-.43-.24-.67l-.28-.77H2.13c-.11.26-.2.51-.3.74l-.29.71a2.66,2.66,0,0,0-.21.78.33.33,0,0,0,.08.22.52.52,0,0,0,.21.14.9.9,0,0,0,.28.08l.28.05V60H0v-.11a1.14,1.14,0,0,0,.45-.14.91.91,0,0,0,.22-.16,1.86,1.86,0,0,0,.24-.33,8,8,0,0,0,.4-.79l.48-1.09.55-1.27c.18-.43.37-.87.55-1.31s.36-.84.52-1.23l-.1-.22a1.52,1.52,0,0,0,.33-.2,1.47,1.47,0,0,0,.26-.23,1.33,1.33,0,0,0,.19-.24,1.11,1.11,0,0,0,.12-.18h.08c.21.57.42,1.1.61,1.61l.54,1.47c.18.47.35.92.51,1.36s.33.88.49,1.31a4,4,0,0,0,.21.52l.22.48.09.14a1.2,1.2,0,0,0,.19.21,1.62,1.62,0,0,0,.29.19,1.24,1.24,0,0,0,.41.09V60ZM3.53,53.79l-.18.42-.29.69c-.12.28-.25.58-.39.93s-.29.71-.45,1.12H4.76c-.11-.31-.23-.62-.35-.92s-.23-.6-.35-.89l-.3-.77C3.66,54.13,3.59,53.94,3.53,53.79Z"/><path class="cls-9" d="M9.22,59.85a.65.65,0,0,1-.43.14.61.61,0,0,1-.44-.16.54.54,0,0,1-.17-.42A.62.62,0,0,1,8.35,59a.59.59,0,0,1,.44-.18.53.53,0,0,1,.43.19.64.64,0,0,1,.16.45A.54.54,0,0,1,9.22,59.85Z"/><path class="cls-9" d="M20.19,52.92a.92.92,0,0,0-.35.44,1.57,1.57,0,0,0-.09.57c0,.27,0,.57,0,.88s0,.64,0,1,0,.82,0,1.28v1.39c0,.24,0,.49,0,.74v.66a.09.09,0,0,1,0,.07.08.08,0,0,1-.07,0,.27.27,0,0,1-.19-.1c-.58-.67-1.11-1.28-1.58-1.84l-1.37-1.6L15.16,55l-1.32-1.5V57.8c0,.34,0,.66,0,.94a1.73,1.73,0,0,0,.12.62.76.76,0,0,0,.36.35,2,2,0,0,0,.66.17V60H12.49v-.1a1.69,1.69,0,0,0,.49-.13.73.73,0,0,0,.39-.32,1.24,1.24,0,0,0,.18-.63c0-.28,0-.62.07-1s0-.64,0-1,0-.83,0-1.28V54.23c0-.14,0-.31,0-.5a1.13,1.13,0,0,0-.15-.49.89.89,0,0,0-.59-.45l-.35-.06v-.11h2.08l4.84,5.67V54.81c0-.27,0-.53,0-.78a1.55,1.55,0,0,0-.09-.59A.91.91,0,0,0,19,53a1.74,1.74,0,0,0-.75-.25v-.11H20.8v.11A1.46,1.46,0,0,0,20.19,52.92Z"/><path class="cls-9" d="M25.34,58.94a1.83,1.83,0,0,1-.39.51,1.9,1.9,0,0,1-.59.39,1.84,1.84,0,0,1-.76.15,2.3,2.3,0,0,1-1-.19,2.07,2.07,0,0,1-.73-.55,2.47,2.47,0,0,1-.46-.83,3,3,0,0,1-.17-1,2.38,2.38,0,0,1,.16-.86,2.49,2.49,0,0,1,.43-.76,2.15,2.15,0,0,1,.69-.54,1.86,1.86,0,0,1,.89-.21,2.57,2.57,0,0,1,.75.1,1.67,1.67,0,0,1,.61.31,1.6,1.6,0,0,1,.43.53,1.88,1.88,0,0,1,.19.74H22.16a1.28,1.28,0,0,1,0,.19,1.62,1.62,0,0,0,0,.22,2.76,2.76,0,0,0,.12.82,2.21,2.21,0,0,0,.36.7,1.68,1.68,0,0,0,.59.47,1.84,1.84,0,0,0,.83.18,1.61,1.61,0,0,0,.9-.26,1.27,1.27,0,0,0,.5-.64l.08,0A1.57,1.57,0,0,1,25.34,58.94Zm-1.17-3.45a.93.93,0,0,0-.7-.27.9.9,0,0,0-.52.17,1.8,1.8,0,0,0-.39.39,2,2,0,0,0-.27.46,2.55,2.55,0,0,0-.11.35h1.87l.24-.05a1.16,1.16,0,0,0,.11-.16.51.51,0,0,0,0-.21A.92.92,0,0,0,24.17,55.49Z"/><path class="cls-9" d="M30.21,59.36a1.46,1.46,0,0,1-.22.33.87.87,0,0,1-.31.23,1,1,0,0,1-.39.07,1,1,0,0,1-.62-.2.86.86,0,0,1-.27-.72h0a3.72,3.72,0,0,1-.22.3,2,2,0,0,1-.33.31,2.13,2.13,0,0,1-.42.23,1.59,1.59,0,0,1-.5.08,1.37,1.37,0,0,1-.34,0,.75.75,0,0,1-.3-.17.78.78,0,0,1-.23-.3A1,1,0,0,1,26,59a.86.86,0,0,1,.23-.55,2.69,2.69,0,0,1,.57-.48l.6-.37.45-.26.35-.18L28.4,57V56a.22.22,0,0,0,0-.1.51.51,0,0,0-.12-.16,1.25,1.25,0,0,0-.24-.15,1.12,1.12,0,0,0-.4-.06.86.86,0,0,0-.32,0,1.06,1.06,0,0,0-.28.15.85.85,0,0,0-.2.17.33.33,0,0,0-.07.15v.46a.31.31,0,0,1-.15.25.49.49,0,0,1-.32.12.38.38,0,0,1-.28-.12.37.37,0,0,1-.12-.27.46.46,0,0,1,.06-.23.69.69,0,0,1,.16-.18,1,1,0,0,1,.2-.15l.19-.11c.17-.1.35-.2.54-.29s.36-.18.52-.25a4.27,4.27,0,0,1,.46-.16,1.34,1.34,0,0,1,.35-.06,1,1,0,0,1,.5.13.85.85,0,0,1,.33.35.56.56,0,0,1,.06.25c0,.12,0,.23,0,.35s0,.47,0,.66v.58c0,.18,0,.37,0,.56v.64a.88.88,0,0,0,.15.61.53.53,0,0,0,.37.15.47.47,0,0,0,.5-.35h.06A1.24,1.24,0,0,1,30.21,59.36ZM28.4,57.2a3.71,3.71,0,0,1-.46.28,4.86,4.86,0,0,0-.54.33,2.38,2.38,0,0,0-.45.38.69.69,0,0,0,0,1,.58.58,0,0,0,.48.22,1.73,1.73,0,0,0,.47-.06.84.84,0,0,0,.37-.24.34.34,0,0,0,.13-.28Z"/><path class="cls-9" d="M30.2,60v-.11a2,2,0,0,0,.62-.1.23.23,0,0,0,.15-.23V53.67a.45.45,0,0,0,0-.13l-.09-.09-.27-.16-.31-.16v-.06l1.46-.48h.07v7a.25.25,0,0,0,.05.16.23.23,0,0,0,.14.07l.23,0,.34,0V60Z"/><path class="cls-9" d="M39.32,60v-.1l.15,0a1.36,1.36,0,0,0,.25-.07.83.83,0,0,0,.22-.14.31.31,0,0,0,.1-.24,1.27,1.27,0,0,0-.06-.3c0-.14-.09-.31-.15-.51s-.15-.43-.24-.67-.18-.5-.29-.77H36.59c-.11.26-.21.51-.3.74l-.29.71a2.66,2.66,0,0,0-.21.78.33.33,0,0,0,.08.22.46.46,0,0,0,.21.14.83.83,0,0,0,.28.08l.28.05V60H34.46v-.11a1.14,1.14,0,0,0,.45-.14.91.91,0,0,0,.22-.16,1.86,1.86,0,0,0,.24-.33,8,8,0,0,0,.4-.79l.48-1.09c.18-.41.36-.83.54-1.27s.38-.87.56-1.31.36-.84.52-1.23l-.1-.22a1.81,1.81,0,0,0,.33-.2,1.47,1.47,0,0,0,.26-.23,1.33,1.33,0,0,0,.19-.24l.12-.18h.08c.21.57.41,1.1.61,1.61l.54,1.47c.18.47.34.92.51,1.36s.33.88.49,1.31a4,4,0,0,0,.21.52l.22.48.09.14a1.2,1.2,0,0,0,.19.21,1.32,1.32,0,0,0,.29.19,1.24,1.24,0,0,0,.41.09V60ZM38,53.79c-.05.09-.1.23-.18.42l-.29.69c-.12.28-.25.58-.39.93s-.29.71-.45,1.12h2.54c-.11-.31-.23-.62-.35-.92s-.24-.6-.35-.89l-.3-.77C38.12,54.13,38.05,53.94,38,53.79Z"/><path class="cls-9" d="M46.21,59.1a2,2,0,0,1-.45.48,1.77,1.77,0,0,1-.59.32,2.09,2.09,0,0,1-.72.11,2.12,2.12,0,0,1-.91-.19,2,2,0,0,1-.72-.53,2.43,2.43,0,0,1-.46-.8,2.66,2.66,0,0,1-.17-1,2.49,2.49,0,0,1,.17-.94,2.83,2.83,0,0,1,.48-.78,2.61,2.61,0,0,1,.73-.54,2,2,0,0,1,.93-.2,2.48,2.48,0,0,1,.66.08,2,2,0,0,1,.58.23,1.4,1.4,0,0,1,.42.38.91.91,0,0,1,.16.52.55.55,0,0,1-.16.38.54.54,0,0,1-.69,0,.49.49,0,0,1-.18-.25,1,1,0,0,0,.06-.35,1,1,0,0,0-.2-.63.77.77,0,0,0-.63-.25,1.06,1.06,0,0,0-.58.16,1.48,1.48,0,0,0-.46.44,2.17,2.17,0,0,0-.31.65,2.45,2.45,0,0,0-.11.78,2.86,2.86,0,0,0,.12.85,1.93,1.93,0,0,0,.35.65,1.58,1.58,0,0,0,.54.42,1.72,1.72,0,0,0,.72.15,2.05,2.05,0,0,0,1-.21,1.73,1.73,0,0,0,.61-.62l.08,0A1.83,1.83,0,0,1,46.21,59.1Z"/><path class="cls-9" d="M50.63,59.1a2,2,0,0,1-.45.48,1.93,1.93,0,0,1-.6.32,2.09,2.09,0,0,1-.72.11,2.15,2.15,0,0,1-.91-.19,1.87,1.87,0,0,1-.71-.53,2.45,2.45,0,0,1-.47-.8,2.88,2.88,0,0,1-.17-1,2.5,2.5,0,0,1,.18-.94,2.42,2.42,0,0,1,.48-.78,2.48,2.48,0,0,1,.73-.54,2,2,0,0,1,.92-.2,2.51,2.51,0,0,1,.67.08,2,2,0,0,1,.58.23,1.25,1.25,0,0,1,.41.38.85.85,0,0,1,.16.52.51.51,0,0,1-.16.38.51.51,0,0,1-.37.15.5.5,0,0,1-.31-.1.49.49,0,0,1-.18-.25,1.23,1.23,0,0,0,0-.35,1,1,0,0,0-.2-.63.74.74,0,0,0-.63-.25,1.08,1.08,0,0,0-.58.16,1.6,1.6,0,0,0-.46.44,2.45,2.45,0,0,0-.31.65,2.77,2.77,0,0,0-.11.78,2.86,2.86,0,0,0,.12.85,2.13,2.13,0,0,0,.35.65,1.52,1.52,0,0,0,.55.42,1.66,1.66,0,0,0,.72.15,2,2,0,0,0,1-.21,1.65,1.65,0,0,0,.61-.62l.09,0A2.07,2.07,0,0,1,50.63,59.1Z"/><path class="cls-9" d="M55.65,58.47a2.62,2.62,0,0,1-.52.81,2.4,2.4,0,0,1-.76.54,2.23,2.23,0,0,1-.92.19,2.54,2.54,0,0,1-.83-.14,2.3,2.3,0,0,1-1.38-1.25A2.73,2.73,0,0,1,51,57.48a2.38,2.38,0,0,1,.18-.91,2.39,2.39,0,0,1,1.28-1.32,2.32,2.32,0,0,1,1-.2,2.47,2.47,0,0,1,.83.15,2.35,2.35,0,0,1,.76.45,2.37,2.37,0,0,1,.78,1.83A2.53,2.53,0,0,1,55.65,58.47Zm-.83-1.75a2.86,2.86,0,0,0-.25-.73,1.69,1.69,0,0,0-.46-.56,1.11,1.11,0,0,0-.71-.22,1,1,0,0,0-.6.2,1.88,1.88,0,0,0-.46.54,2.78,2.78,0,0,0-.28.75,3.33,3.33,0,0,0-.1.84,5.08,5.08,0,0,0,.08.89,2.32,2.32,0,0,0,.27.74,1.37,1.37,0,0,0,.47.51,1.18,1.18,0,0,0,.68.19,1,1,0,0,0,.67-.24,1.8,1.8,0,0,0,.44-.6,3.39,3.39,0,0,0,.25-.78,4.42,4.42,0,0,0,.07-.78A4.11,4.11,0,0,0,54.82,56.72Z"/><path class="cls-9" d="M59.76,60h-.07V59h0a4,4,0,0,1-.28.37,2,2,0,0,1-.37.35,1.41,1.41,0,0,1-.45.25A1.61,1.61,0,0,1,58,60a1.17,1.17,0,0,1-1-.38,1.78,1.78,0,0,1-.32-1.14V55.88a.71.71,0,0,0,0-.14c0-.06,0-.1,0-.15s0-.07,0-.09a.23.23,0,0,0-.11-.14,1.15,1.15,0,0,0-.17-.06l-.2,0-.19,0v-.11h1.57v3a1.89,1.89,0,0,0,.21,1,.84.84,0,0,0,.77.32,1.32,1.32,0,0,0,.37,0,1.13,1.13,0,0,0,.29-.15,1.16,1.16,0,0,0,.24-.2,2.2,2.2,0,0,0,.2-.23V55.89c0-.06,0-.15,0-.26a.67.67,0,0,0-.08-.24,1.9,1.9,0,0,0-.34-.08l-.43-.05v-.11h1.72v4a.41.41,0,0,0,0,.12.19.19,0,0,0,.09.09l.27.13.3.14v.06Z"/><path class="cls-9" d="M64.53,60v-.11A2,2,0,0,0,65,59.8a.2.2,0,0,0,.17-.21V57a1.82,1.82,0,0,0-.23-1,.82.82,0,0,0-.76-.36,1.08,1.08,0,0,0-.56.14,4,4,0,0,0-.5.42v3.36a.26.26,0,0,0,.07.14.33.33,0,0,0,.13.07l.16,0,.19,0V60h-2v-.1a1.12,1.12,0,0,0,.4-.09.24.24,0,0,0,.17-.24V56a.45.45,0,0,0,0-.13l-.09-.09-.21-.11-.25-.12v-.06L63,55.05h.06v1.1h0a4,4,0,0,1,.28-.37,2.15,2.15,0,0,1,.85-.64,1.39,1.39,0,0,1,.53-.1,1,1,0,0,1,.91.44A1.89,1.89,0,0,1,66,56.62v3a.19.19,0,0,0,.07.12.46.46,0,0,0,.16.07l.2,0,.2,0V60Z"/><path class="cls-9" d="M70,55.77H68.42v2.69a1.08,1.08,0,0,0,.22.76.8.8,0,0,0,.58.23,1.06,1.06,0,0,0,.5-.1.85.85,0,0,0,.33-.3l.06,0a2,2,0,0,1-.16.33,1.37,1.37,0,0,1-.29.3,1.4,1.4,0,0,1-.42.22,1.93,1.93,0,0,1-.57.07,1.4,1.4,0,0,1-.41-.06,1.1,1.1,0,0,1-.35-.2,1.32,1.32,0,0,1-.25-.28.68.68,0,0,1-.09-.33c0-.64,0-1.24,0-1.82s0-1.09,0-1.54h-.75v-.11l1.48-1.4h.08v.89h1.89Z"/><path class="cls-9" d="M70.21,60v-.1l.24,0a.71.71,0,0,0,.22-.06.35.35,0,0,0,.16-.09.19.19,0,0,0,.07-.16v-3.5a.71.71,0,0,0,0-.15.22.22,0,0,0-.09-.11l-.22-.12-.27-.11V55.5l1.38-.45h.06v4.57a.19.19,0,0,0,.09.14.35.35,0,0,0,.15.07l.2,0,.21,0V60Zm1.46-6.16a.5.5,0,0,1-.39.16.55.55,0,0,1-.55-.55.5.5,0,0,1,.16-.39.58.58,0,0,1,.78,0,.56.56,0,0,1,0,.78Z"/><path class="cls-9" d="M75.77,60v-.11a2.13,2.13,0,0,0,.44-.07.2.2,0,0,0,.16-.21V57a1.92,1.92,0,0,0-.22-1,.83.83,0,0,0-.76-.36,1.06,1.06,0,0,0-.56.14,3.37,3.37,0,0,0-.5.42v3.36a.21.21,0,0,0,.07.14.24.24,0,0,0,.12.07l.16,0,.2,0V60h-2v-.1a1.18,1.18,0,0,0,.41-.09.25.25,0,0,0,.17-.24V56a.39.39,0,0,0,0-.13.36.36,0,0,0-.09-.09l-.21-.11a1.15,1.15,0,0,0-.25-.12v-.06l1.34-.48h.07v1.1h0a2.12,2.12,0,0,1,.28-.37,2.22,2.22,0,0,1,.38-.37,2,2,0,0,1,.47-.27,1.35,1.35,0,0,1,.53-.1,1,1,0,0,1,.9.44,1.89,1.89,0,0,1,.32,1.13v3a.17.17,0,0,0,.06.12.46.46,0,0,0,.16.07l.2,0,.2,0V60Z"/><path class="cls-9" d="M83.31,55.88a.35.35,0,0,1-.26.12.59.59,0,0,1-.19,0l-.27-.13a2.19,2.19,0,0,1-.3-.16L82,55.51l0,0a4.2,4.2,0,0,1,.26.44,1.13,1.13,0,0,1,.11.53,1.4,1.4,0,0,1-.56,1.21,2.65,2.65,0,0,1-1.56.4,1.46,1.46,0,0,1-.29,0l-.35,0a1.07,1.07,0,0,0-.52.16.39.39,0,0,0-.2.33.37.37,0,0,0,.11.27.65.65,0,0,0,.25.17,1.21,1.21,0,0,0,.34.08,2.17,2.17,0,0,0,.36,0h1.63a1.67,1.67,0,0,1,.65.12,1.44,1.44,0,0,1,.49.3A1.39,1.39,0,0,1,83,60a1.43,1.43,0,0,1,.11.56,1.63,1.63,0,0,1-.2.76,2.25,2.25,0,0,1-.56.64,3,3,0,0,1-.84.43,3.34,3.34,0,0,1-1.07.16,3.72,3.72,0,0,1-1.73-.33,1,1,0,0,1-.62-.92.77.77,0,0,1,.11-.39,2.24,2.24,0,0,1,.3-.33,4.63,4.63,0,0,1,.4-.3l.43-.27v0a1.58,1.58,0,0,1-.8-.29.78.78,0,0,1-.28-.63.81.81,0,0,1,.09-.37,1.08,1.08,0,0,1,.26-.31,1.36,1.36,0,0,1,.38-.24,1.55,1.55,0,0,1,.48-.13v0a1.56,1.56,0,0,1-.7-.51A1.51,1.51,0,0,1,78.65,56a1.54,1.54,0,0,1,.42-.5,2.1,2.1,0,0,1,.63-.33,2.47,2.47,0,0,1,.79-.12,2.87,2.87,0,0,1,.69.07,3.1,3.1,0,0,1,.63.24.63.63,0,0,0,.21,0h.21a.78.78,0,0,0,.22,0l.18-.08.17-.09a.66.66,0,0,1,.21,0,.37.37,0,0,1,.29.12.4.4,0,0,1,.11.3A.39.39,0,0,1,83.31,55.88Zm-1,4.57a.64.64,0,0,0-.3-.29,1.62,1.62,0,0,0-.56-.16,7.16,7.16,0,0,0-.93,0l-.44,0-.37,0a1.11,1.11,0,0,0-.66.39,1,1,0,0,0-.19.58,1,1,0,0,0,.18.58,1.61,1.61,0,0,0,.45.41,1.88,1.88,0,0,0,.56.25,2,2,0,0,0,.56.08,4,4,0,0,0,.53,0,1.87,1.87,0,0,0,.39-.09,1.56,1.56,0,0,0,.63-.46,1.12,1.12,0,0,0,.27-.76A1.07,1.07,0,0,0,82.3,60.45ZM81.45,56a1.38,1.38,0,0,0-.21-.42,1,1,0,0,0-.35-.28,1.06,1.06,0,0,0-.48-.11.88.88,0,0,0-.46.12,1,1,0,0,0-.34.31,1.28,1.28,0,0,0-.21.46,1.82,1.82,0,0,0-.08.52,1.49,1.49,0,0,0,.32,1,.94.94,0,0,0,.76.37,1,1,0,0,0,.48-.12,1.13,1.13,0,0,0,.36-.33,1.68,1.68,0,0,0,.21-.47,1.9,1.9,0,0,0,.07-.54A1.59,1.59,0,0,0,81.45,56Z"/><path class="cls-9" d="M90.12,59.36a1.46,1.46,0,0,1-.22.33.79.79,0,0,1-.31.23,1,1,0,0,1-.39.07,1,1,0,0,1-.62-.2.86.86,0,0,1-.27-.72h0a3.72,3.72,0,0,1-.22.3,2,2,0,0,1-.33.31,1.69,1.69,0,0,1-.42.23,1.59,1.59,0,0,1-.5.08,1.37,1.37,0,0,1-.34,0,.75.75,0,0,1-.3-.17.89.89,0,0,1-.23-.3,1.17,1.17,0,0,1-.08-.45.81.81,0,0,1,.23-.55,2.4,2.4,0,0,1,.56-.48l.6-.37.46-.26.34-.18.25-.14V56a.22.22,0,0,0,0-.1.51.51,0,0,0-.12-.16,1.25,1.25,0,0,0-.24-.15,1.09,1.09,0,0,0-.4-.06.89.89,0,0,0-.32,0,1.06,1.06,0,0,0-.28.15.85.85,0,0,0-.2.17.33.33,0,0,0-.07.15v.46a.33.33,0,0,1-.14.25.52.52,0,0,1-.33.12.38.38,0,0,1-.28-.12.37.37,0,0,1-.12-.27.39.39,0,0,1,.07-.23.65.65,0,0,1,.15-.18,1.49,1.49,0,0,1,.2-.15l.19-.11.54-.29a5,5,0,0,1,.53-.25,3.63,3.63,0,0,1,.46-.16,1.28,1.28,0,0,1,.34-.06,1,1,0,0,1,.5.13.87.87,0,0,1,.34.35.81.81,0,0,1,0,.25c0,.12,0,.23,0,.35s0,.47,0,.66v.58c0,.18,0,.37,0,.56v.64a.83.83,0,0,0,.16.61.49.49,0,0,0,.36.15.5.5,0,0,0,.35-.1.53.53,0,0,0,.15-.25h.06A1.24,1.24,0,0,1,90.12,59.36ZM88.31,57.2a3.09,3.09,0,0,1-.46.28q-.27.15-.54.33a2.38,2.38,0,0,0-.45.38.69.69,0,0,0,0,1,.58.58,0,0,0,.48.22,1.68,1.68,0,0,0,.47-.06.93.93,0,0,0,.38-.24.36.36,0,0,0,.12-.28Z"/><path class="cls-9" d="M93.19,60v-.11a2.13,2.13,0,0,0,.44-.07.21.21,0,0,0,.16-.21V57a1.82,1.82,0,0,0-.23-1,.82.82,0,0,0-.75-.36,1,1,0,0,0-.56.14,4,4,0,0,0-.51.42v3.36a.27.27,0,0,0,.08.14.24.24,0,0,0,.12.07l.16,0,.2,0V60h-2v-.1a1.24,1.24,0,0,0,.41-.09.25.25,0,0,0,.17-.24V56a.39.39,0,0,0,0-.13.36.36,0,0,0-.09-.09l-.21-.11a1.15,1.15,0,0,0-.25-.12v-.06l1.34-.48h.06v1.1h0a4,4,0,0,1,.28-.37,2.28,2.28,0,0,1,.39-.37,2,2,0,0,1,.47-.27,1.3,1.3,0,0,1,.52-.1,1,1,0,0,1,.91.44,1.89,1.89,0,0,1,.32,1.13v3a.17.17,0,0,0,.06.12.46.46,0,0,0,.16.07l.2,0,.2,0V60Z"/><path class="cls-9" d="M99.3,60h-.06V59h0a2.16,2.16,0,0,1-.7.76,2,2,0,0,1-1,.24,2,2,0,0,1-.73-.14,1.77,1.77,0,0,1-.63-.46,2.5,2.5,0,0,1-.44-.77,3.05,3.05,0,0,1-.16-1,2.53,2.53,0,0,1,.19-1,2.28,2.28,0,0,1,.53-.8,2.44,2.44,0,0,1,.82-.54,2.81,2.81,0,0,1,1.06-.19,2.67,2.67,0,0,1,.58.05,3.33,3.33,0,0,1,.5.12c0-.1,0-.24,0-.42V53.39l-.84-.32V53l1.62-.45h.09V59.2l.3.14.42.17v.07Zm-.07-3.84a1.89,1.89,0,0,0-.58-.67,1.11,1.11,0,0,0-.64-.26,1.23,1.23,0,0,0-.68.18,1.54,1.54,0,0,0-.46.49,2.24,2.24,0,0,0-.28.71,4.47,4.47,0,0,0-.08.82,3.1,3.1,0,0,0,.1.81,2.33,2.33,0,0,0,.31.7,1.53,1.53,0,0,0,.5.48,1.36,1.36,0,0,0,.7.19,1,1,0,0,0,.72-.29,1.33,1.33,0,0,0,.39-.73Z"/><path class="cls-9" d="M110.4,55a3.57,3.57,0,0,0-.4-.92,3.47,3.47,0,0,0-.63-.74,2.74,2.74,0,0,0-.82-.5,2.38,2.38,0,0,0-1-.19,2.51,2.51,0,0,0-1.26.32,2.84,2.84,0,0,0-.92.84,4.19,4.19,0,0,0-.58,1.18,4.74,4.74,0,0,0-.2,1.35,4.43,4.43,0,0,0,.21,1.38,3.34,3.34,0,0,0,.6,1.12,2.74,2.74,0,0,0,.94.75,2.65,2.65,0,0,0,1.23.28,2.58,2.58,0,0,0,1-.19,2.79,2.79,0,0,0,.82-.52,2.9,2.9,0,0,0,.62-.73,2.8,2.8,0,0,0,.34-.85h.12l0,2.25h-.12a2.78,2.78,0,0,0-.26-.32c-.08-.09-.15-.14-.18-.14l-.18.11a3,3,0,0,1-.47.23,4.8,4.8,0,0,1-.75.23,5.05,5.05,0,0,1-1,.09,5.13,5.13,0,0,1-1.72-.27,3.63,3.63,0,0,1-1.3-.76,3.32,3.32,0,0,1-.83-1.19,4,4,0,0,1-.28-1.52c0-.12,0-.26,0-.42s0-.32.09-.5a5.17,5.17,0,0,1,.19-.55,4.1,4.1,0,0,1,.3-.59,3.62,3.62,0,0,1,.53-.67,3.3,3.3,0,0,1,.75-.55,4.27,4.27,0,0,1,1-.39,5.05,5.05,0,0,1,1.22-.14,4.89,4.89,0,0,1,1.07.11,5.38,5.38,0,0,1,.77.25,4,4,0,0,1,.47.24.78.78,0,0,0,.18.12l.08,0,.12-.11.14-.16a.83.83,0,0,0,.13-.18h.11V55Z"/><path class="cls-9" d="M115.86,58.47a2.62,2.62,0,0,1-.52.81,2.4,2.4,0,0,1-.76.54,2.23,2.23,0,0,1-.92.19,2.54,2.54,0,0,1-.83-.14,2.3,2.3,0,0,1-1.38-1.25,2.58,2.58,0,0,1-.23-1.14,2.38,2.38,0,0,1,.18-.91,2.48,2.48,0,0,1,.5-.78,2.54,2.54,0,0,1,.77-.54,2.4,2.4,0,0,1,1-.2,2.47,2.47,0,0,1,.83.15,2.35,2.35,0,0,1,.76.45,2.37,2.37,0,0,1,.78,1.83A2.53,2.53,0,0,1,115.86,58.47ZM115,56.72a2.87,2.87,0,0,0-.26-.73,1.48,1.48,0,0,0-.46-.56,1.09,1.09,0,0,0-.7-.22,1,1,0,0,0-.6.2,1.88,1.88,0,0,0-.46.54,2.78,2.78,0,0,0-.28.75,3.33,3.33,0,0,0-.1.84,5.08,5.08,0,0,0,.08.89,2.1,2.1,0,0,0,.27.74,1.37,1.37,0,0,0,.47.51,1.18,1.18,0,0,0,.68.19,1,1,0,0,0,.67-.24,1.8,1.8,0,0,0,.44-.6,4,4,0,0,0,.25-.78,4.42,4.42,0,0,0,.07-.78A4.11,4.11,0,0,0,115,56.72Z"/><path class="cls-9" d="M119.4,60v-.11a1.91,1.91,0,0,0,.43-.07.2.2,0,0,0,.17-.21V57a1.82,1.82,0,0,0-.23-1,.82.82,0,0,0-.75-.36,1.09,1.09,0,0,0-.57.14,4,4,0,0,0-.5.42v3.36a.27.27,0,0,0,.08.14.24.24,0,0,0,.12.07l.16,0,.2,0V60h-2v-.1a1.24,1.24,0,0,0,.41-.09.25.25,0,0,0,.17-.24V56a.39.39,0,0,0,0-.13l-.09-.09-.21-.11a1.42,1.42,0,0,0-.25-.12v-.06l1.34-.48h.06v1.1h0a4,4,0,0,1,.28-.37,2.28,2.28,0,0,1,.39-.37,2.13,2.13,0,0,1,.46-.27,1.39,1.39,0,0,1,.53-.1,1,1,0,0,1,.91.44,1.89,1.89,0,0,1,.32,1.13v3a.17.17,0,0,0,.06.12.46.46,0,0,0,.16.07l.2,0,.2,0V60Z"/><path class="cls-9" d="M125.19,59.18a1.52,1.52,0,0,1-.43.48,1.76,1.76,0,0,1-.61.26,2.74,2.74,0,0,1-.72.08,3.89,3.89,0,0,1-.85-.08,3.28,3.28,0,0,1-.73-.23V58.34h.08a4.85,4.85,0,0,0,.2.51,2.76,2.76,0,0,0,.3.5,1.28,1.28,0,0,0,.42.38,1.06,1.06,0,0,0,.58.15,1.08,1.08,0,0,0,.78-.28,1.18,1.18,0,0,0,.29-.86.74.74,0,0,0-.2-.53,1,1,0,0,0-.55-.28l-.53-.11a3.45,3.45,0,0,1-.45-.14,1.27,1.27,0,0,1-.63-.46,1.29,1.29,0,0,1-.24-.78,1.21,1.21,0,0,1,.13-.58,1.51,1.51,0,0,1,.36-.44,1.73,1.73,0,0,1,.52-.28,2.2,2.2,0,0,1,.64-.09,3.42,3.42,0,0,1,.75.07,5.79,5.79,0,0,1,.63.19l.12,1.27-.08,0c-.1-.2-.19-.39-.29-.57a2.58,2.58,0,0,0-.32-.45,1.24,1.24,0,0,0-.39-.29,1.19,1.19,0,0,0-.51-.1,1,1,0,0,0-.34.06.81.81,0,0,0-.5.48.86.86,0,0,0-.09.41.65.65,0,0,0,.22.54,1.5,1.5,0,0,0,.54.25l.49.1.46.11a1.5,1.5,0,0,1,.78.47,1.24,1.24,0,0,1,.32.88A1.47,1.47,0,0,1,125.19,59.18Z"/><path class="cls-9" d="M129.2,60h-.07V59h0a4,4,0,0,1-.28.37,2,2,0,0,1-.37.35,1.53,1.53,0,0,1-.45.25,1.61,1.61,0,0,1-.54.09,1.16,1.16,0,0,1-1-.38,1.78,1.78,0,0,1-.32-1.14V55.88a.71.71,0,0,0,0-.14c0-.06,0-.1,0-.15s0-.07,0-.09a.21.21,0,0,0-.12-.14.76.76,0,0,0-.16-.06l-.2,0-.19,0v-.11h1.57v3a1.89,1.89,0,0,0,.21,1,.84.84,0,0,0,.77.32,1,1,0,0,0,.66-.2,1.5,1.5,0,0,0,.24-.2,2.2,2.2,0,0,0,.2-.23V55.89c0-.06,0-.15,0-.26a.52.52,0,0,0-.09-.24,1.59,1.59,0,0,0-.33-.08l-.43-.05v-.11H130v4a.41.41,0,0,0,0,.12.19.19,0,0,0,.09.09l.27.13.3.14v.06Z"/><path class="cls-9" d="M130.9,60v-.11a2,2,0,0,0,.62-.1.23.23,0,0,0,.15-.23V53.67a.45.45,0,0,0,0-.13.36.36,0,0,0-.09-.09l-.28-.16-.3-.16v-.06l1.46-.48h.07v7a.25.25,0,0,0,0,.16.23.23,0,0,0,.13.07l.24,0,.34,0V60Z"/><path class="cls-9" d="M136.6,55.77h-1.55v2.69a1.08,1.08,0,0,0,.22.76.78.78,0,0,0,.58.23,1,1,0,0,0,.49-.1.81.81,0,0,0,.34-.3l.06,0a1.48,1.48,0,0,1-.17.33,1.13,1.13,0,0,1-.28.3,1.4,1.4,0,0,1-.42.22,1.93,1.93,0,0,1-.57.07,1.4,1.4,0,0,1-.41-.06,1.1,1.1,0,0,1-.35-.2,1.32,1.32,0,0,1-.25-.28.68.68,0,0,1-.09-.33c0-.64,0-1.24,0-1.82s0-1.09,0-1.54h-.75v-.11l1.47-1.4H135v.89h1.89Z"/><path class="cls-9" d="M136.83,60v-.1l.25,0a.79.79,0,0,0,.22-.06.42.42,0,0,0,.16-.09.19.19,0,0,0,.07-.16v-3.5a.68.68,0,0,0,0-.15.26.26,0,0,0-.08-.11l-.22-.12-.27-.11V55.5l1.38-.45h.06v4.57a.22.22,0,0,0,.08.14.46.46,0,0,0,.16.07l.2,0,.21,0V60Zm1.47-6.16a.51.51,0,0,1-.39.16.56.56,0,0,1-.4-.94.57.57,0,0,1,.4-.15.54.54,0,0,1,.39.15.56.56,0,0,1,0,.78Z"/><path class="cls-9" d="M142.39,60v-.11a1.92,1.92,0,0,0,.44-.07.2.2,0,0,0,.17-.21V57a1.82,1.82,0,0,0-.23-1,.82.82,0,0,0-.75-.36,1.09,1.09,0,0,0-.57.14,4,4,0,0,0-.5.42v3.36a.27.27,0,0,0,.08.14.24.24,0,0,0,.12.07l.16,0,.2,0V60h-2v-.1a1.24,1.24,0,0,0,.41-.09.25.25,0,0,0,.17-.24V56a.39.39,0,0,0,0-.13.36.36,0,0,0-.09-.09l-.21-.11a1.42,1.42,0,0,0-.25-.12v-.06l1.34-.48h.06v1.1h0a4,4,0,0,1,.28-.37,2.28,2.28,0,0,1,.39-.37,2.13,2.13,0,0,1,.46-.27,1.39,1.39,0,0,1,.53-.1,1,1,0,0,1,.91.44,1.89,1.89,0,0,1,.32,1.13v3a.17.17,0,0,0,.06.12.46.46,0,0,0,.16.07l.2,0,.2,0V60Z"/><path class="cls-9" d="M149.93,55.88a.32.32,0,0,1-.26.12.62.62,0,0,1-.18,0l-.27-.13a2.19,2.19,0,0,1-.3-.16l-.28-.15,0,0a4.2,4.2,0,0,1,.26.44,1.13,1.13,0,0,1,.11.53,1.4,1.4,0,0,1-.56,1.21,2.65,2.65,0,0,1-1.56.4,1.46,1.46,0,0,1-.29,0l-.35,0a1.07,1.07,0,0,0-.52.16.39.39,0,0,0-.2.33.41.41,0,0,0,.1.27.78.78,0,0,0,.26.17,1.21,1.21,0,0,0,.34.08,2.17,2.17,0,0,0,.36,0h1.63a1.62,1.62,0,0,1,.64.12,1.33,1.33,0,0,1,.81.75,1.43,1.43,0,0,1,.1.56,1.61,1.61,0,0,1-.19.76A2.25,2.25,0,0,1,149,62a3,3,0,0,1-.85.43,3.23,3.23,0,0,1-1.06.16,3.77,3.77,0,0,1-1.74-.33,1,1,0,0,1-.61-.92.68.68,0,0,1,.11-.39,2.24,2.24,0,0,1,.3-.33,4.63,4.63,0,0,1,.4-.3L146,60v0a1.58,1.58,0,0,1-.8-.29.78.78,0,0,1-.28-.63.81.81,0,0,1,.09-.37,1.08,1.08,0,0,1,.26-.31,1.23,1.23,0,0,1,.38-.24,1.48,1.48,0,0,1,.48-.13v0a1.56,1.56,0,0,1-.7-.51,1.4,1.4,0,0,1-.26-.86,1.28,1.28,0,0,1,.15-.61,1.54,1.54,0,0,1,.42-.5,1.88,1.88,0,0,1,.63-.33,2.47,2.47,0,0,1,.79-.12,2.87,2.87,0,0,1,.69.07,3.1,3.1,0,0,1,.63.24.63.63,0,0,0,.21,0h.21a.78.78,0,0,0,.22,0l.17-.08.18-.09a.66.66,0,0,1,.21,0,.38.38,0,0,1,.29.12.44.44,0,0,1,.11.3A.36.36,0,0,1,149.93,55.88Zm-1,4.57a.64.64,0,0,0-.3-.29,1.68,1.68,0,0,0-.56-.16,7.39,7.39,0,0,0-.93,0l-.44,0-.37,0a1.11,1.11,0,0,0-.66.39,1,1,0,0,0-.19.58,1,1,0,0,0,.18.58,1.61,1.61,0,0,0,.45.41,1.88,1.88,0,0,0,.56.25,1.94,1.94,0,0,0,.56.08,4.11,4.11,0,0,0,.53,0,2.23,2.23,0,0,0,.39-.09,1.56,1.56,0,0,0,.63-.46,1.12,1.12,0,0,0,.27-.76A1.07,1.07,0,0,0,148.93,60.45ZM148.08,56a1.38,1.38,0,0,0-.21-.42,1,1,0,0,0-.35-.28,1.06,1.06,0,0,0-.48-.11.88.88,0,0,0-.46.12,1.15,1.15,0,0,0-.35.31,1.75,1.75,0,0,0-.21.46,2.25,2.25,0,0,0-.07.52,1.54,1.54,0,0,0,.31,1A1,1,0,0,0,147,58a1,1,0,0,0,.48-.12,1,1,0,0,0,.35-.33,1.45,1.45,0,0,0,.22-.47,1.9,1.9,0,0,0,.07-.54A1.59,1.59,0,0,0,148.08,56Z"/><path class="cls-9" d="M157.59,58.85a2,2,0,0,1-.55.66,2.35,2.35,0,0,1-.84.41,4.1,4.1,0,0,1-1.08.13,5.34,5.34,0,0,1-.86-.06,4.31,4.31,0,0,1-.59-.14,3.2,3.2,0,0,1-.35-.16.41.41,0,0,0-.15-.07s-.07,0-.13.12l-.19.23h-.09l0-2h.1a3.19,3.19,0,0,0,.24.54,5,5,0,0,0,.31.49,2.77,2.77,0,0,0,.36.4,1.69,1.69,0,0,0,.36.27,3.16,3.16,0,0,0,.46.18,1.81,1.81,0,0,0,.55.09,1.83,1.83,0,0,0,1.23-.41,1.43,1.43,0,0,0,.47-1.12,1.28,1.28,0,0,0-.09-.5,1.47,1.47,0,0,0-.25-.38,1.84,1.84,0,0,0-.38-.27,4,4,0,0,0-.46-.2l-.43-.15-.34-.12-.33-.11-.4-.15a2.18,2.18,0,0,1-.94-.7,2.5,2.5,0,0,1-.3-.53,1.84,1.84,0,0,1-.11-.62,2,2,0,0,1,.74-1.62,2.17,2.17,0,0,1,.79-.39,3.22,3.22,0,0,1,.93-.13,3.56,3.56,0,0,1,.79.08,2.47,2.47,0,0,1,.54.17,1.72,1.72,0,0,1,.31.16L157,53s.07,0,.13-.12a2.27,2.27,0,0,0,.18-.25h.11v1.89h-.11a4.51,4.51,0,0,0-.32-.67,3.28,3.28,0,0,0-.45-.59,2.21,2.21,0,0,0-.58-.42,1.6,1.6,0,0,0-.73-.17,1.63,1.63,0,0,0-.59.1,1.37,1.37,0,0,0-.49.27,1.29,1.29,0,0,0-.33.46,1.49,1.49,0,0,0-.12.62A1.14,1.14,0,0,0,154,55a2.28,2.28,0,0,0,.84.53l.39.14.35.12.35.11.37.14a2.37,2.37,0,0,1,1.08.74,2.08,2.08,0,0,1,.18,2.09Z"/><path class="cls-9" d="M162.51,58.94a1.83,1.83,0,0,1-.39.51,2,2,0,0,1-.58.39,1.92,1.92,0,0,1-.77.15,2.3,2.3,0,0,1-1-.19,2.07,2.07,0,0,1-.73-.55,2.47,2.47,0,0,1-.46-.83,3,3,0,0,1-.17-1,2.61,2.61,0,0,1,.16-.86,2.49,2.49,0,0,1,.43-.76,2.15,2.15,0,0,1,.69-.54,1.89,1.89,0,0,1,.89-.21,2.57,2.57,0,0,1,.75.1,1.81,1.81,0,0,1,.62.31,1.7,1.7,0,0,1,.42.53,1.88,1.88,0,0,1,.19.74h-3.28a1.28,1.28,0,0,1,0,.19c0,.07,0,.15,0,.22a2.47,2.47,0,0,0,.13.82,2.19,2.19,0,0,0,.35.7,1.63,1.63,0,0,0,.6.47,1.77,1.77,0,0,0,.82.18,1.61,1.61,0,0,0,.9-.26,1.27,1.27,0,0,0,.5-.64l.09,0A1.91,1.91,0,0,1,162.51,58.94Zm-1.17-3.45a.93.93,0,0,0-.7-.27.85.85,0,0,0-.51.17,1.92,1.92,0,0,0-.66.85,1.81,1.81,0,0,0-.12.35h1.87l.24-.05a1.16,1.16,0,0,0,.11-.16.51.51,0,0,0,0-.21A.88.88,0,0,0,161.34,55.49Z"/><path class="cls-9" d="M166.34,56a.42.42,0,0,1-.31.15.48.48,0,0,1-.26-.06.55.55,0,0,1-.17-.13,1.58,1.58,0,0,0-.15-.12.39.39,0,0,0-.23-.06.4.4,0,0,0-.24.09,1.14,1.14,0,0,0-.22.22,1.49,1.49,0,0,0-.18.3c-.06.11-.1.22-.15.32v2.95a.27.27,0,0,0,.14.14.78.78,0,0,0,.23.07l.26,0,.24,0V60H163v-.1a1.24,1.24,0,0,0,.41-.09.25.25,0,0,0,.17-.24V56.1a.29.29,0,0,0,0-.12.26.26,0,0,0-.09-.1l-.21-.12a1.19,1.19,0,0,0-.25-.13v-.06l1.34-.52h.06l0,1.42h0l.17-.36a3,3,0,0,1,.28-.48,2,2,0,0,1,.42-.41.94.94,0,0,1,.57-.17.64.64,0,0,1,.43.15.48.48,0,0,1,.18.39A.57.57,0,0,1,166.34,56Z"/><path class="cls-9" d="M171.16,55.28a1.29,1.29,0,0,0-.31.08.75.75,0,0,0-.28.17.82.82,0,0,0-.22.29l-.28.68c-.1.26-.22.53-.33.82s-.23.57-.34.85-.22.55-.31.79-.11.23-.14.31l-.11.24c0,.08-.07.15-.1.22l-.1.23a.13.13,0,0,1-.11.06.07.07,0,0,1-.06,0l0,0-.31-.79c-.09-.25-.19-.5-.29-.77l-.33-.84c-.11-.3-.24-.64-.39-1l-.08-.22-.12-.29-.12-.3c-.05-.09-.08-.17-.12-.23a.62.62,0,0,0-.19-.14,1,1,0,0,0-.46-.1v-.11h2.46v.11l-.23,0-.26,0a.67.67,0,0,0-.21.09.19.19,0,0,0-.09.17,1.8,1.8,0,0,0,.07.24c0,.13.1.29.18.48l.24.64q.12.34.27.69l.27.68c.09.22.16.41.22.57l.36-.9q.21-.52.39-1l.31-.88a2,2,0,0,0,.13-.47.29.29,0,0,0-.08-.22.4.4,0,0,0-.19-.11.85.85,0,0,0-.23,0h-.22v-.1h2v.11Z"/><path class="cls-9" d="M171.08,60v-.1l.24,0a.64.64,0,0,0,.22-.06.46.46,0,0,0,.17-.09.21.21,0,0,0,.06-.16v-3.5a.71.71,0,0,0,0-.15.22.22,0,0,0-.09-.11l-.22-.12a1.69,1.69,0,0,0-.27-.11V55.5l1.38-.45h.06v4.57a.23.23,0,0,0,.09.14.39.39,0,0,0,.16.07l.2,0,.21,0V60Zm1.47-6.16a.54.54,0,0,1-.4.16.55.55,0,0,1-.55-.55.5.5,0,0,1,.16-.39.54.54,0,0,1,.39-.15.57.57,0,0,1,.4.15.58.58,0,0,1,0,.78Z"/><path class="cls-9" d="M177.72,59.1a2,2,0,0,1-.45.48,1.77,1.77,0,0,1-.59.32A2.19,2.19,0,0,1,176,60a2.15,2.15,0,0,1-.91-.19,2,2,0,0,1-.71-.53,2.64,2.64,0,0,1-.47-.8,2.88,2.88,0,0,1-.16-1,2.49,2.49,0,0,1,.17-.94,2.83,2.83,0,0,1,.48-.78,2.48,2.48,0,0,1,.73-.54,2,2,0,0,1,.93-.2,2.48,2.48,0,0,1,.66.08,2,2,0,0,1,.58.23,1.4,1.4,0,0,1,.42.38.91.91,0,0,1,.16.52.55.55,0,0,1-.16.38.54.54,0,0,1-.38.15.5.5,0,0,1-.31-.1.49.49,0,0,1-.18-.25,1.14,1.14,0,0,0-.15-1,.73.73,0,0,0-.62-.25,1.11,1.11,0,0,0-.59.16,1.74,1.74,0,0,0-.46.44,2.16,2.16,0,0,0-.3.65,2.45,2.45,0,0,0-.12.78,2.86,2.86,0,0,0,.13.85,1.91,1.91,0,0,0,.34.65,1.62,1.62,0,0,0,.55.42,1.72,1.72,0,0,0,.72.15,2,2,0,0,0,1-.21,1.75,1.75,0,0,0,.62-.62l.08,0A1.83,1.83,0,0,1,177.72,59.1Z"/><path class="cls-9" d="M182.15,58.94a2.31,2.31,0,0,1-.39.51,1.9,1.9,0,0,1-.59.39,1.87,1.87,0,0,1-.76.15,2.27,2.27,0,0,1-.95-.19,2,2,0,0,1-.73-.55,2.31,2.31,0,0,1-.46-.83,3,3,0,0,1-.17-1,2.6,2.6,0,0,1,.15-.86,2.74,2.74,0,0,1,.44-.76,2.11,2.11,0,0,1,.68-.54,1.93,1.93,0,0,1,.9-.21,2.66,2.66,0,0,1,.75.1,1.76,1.76,0,0,1,.61.31,1.6,1.6,0,0,1,.43.53,1.88,1.88,0,0,1,.19.74H179a1.28,1.28,0,0,1,0,.19,1.62,1.62,0,0,0,0,.22,2.76,2.76,0,0,0,.12.82,2,2,0,0,0,.36.7,1.6,1.6,0,0,0,.59.47,1.84,1.84,0,0,0,.83.18,1.61,1.61,0,0,0,.9-.26,1.27,1.27,0,0,0,.5-.64l.08,0A1.85,1.85,0,0,1,182.15,58.94ZM181,55.49a.93.93,0,0,0-.7-.27.9.9,0,0,0-.52.17,2.11,2.11,0,0,0-.4.39,1.93,1.93,0,0,0-.26.46,1.64,1.64,0,0,0-.11.35h1.87l.24-.05a1,1,0,0,0,.1-.16.37.37,0,0,0,0-.21A.92.92,0,0,0,181,55.49Z"/><path class="cls-9" d="M186,59.18a1.52,1.52,0,0,1-.43.48,1.68,1.68,0,0,1-.61.26,2.74,2.74,0,0,1-.72.08,3.74,3.74,0,0,1-.84-.08,3.21,3.21,0,0,1-.74-.23V58.34h.08a5,5,0,0,0,.21.51,2.72,2.72,0,0,0,.29.5,1.51,1.51,0,0,0,.42.38,1.06,1.06,0,0,0,.58.15,1.08,1.08,0,0,0,.78-.28,1.18,1.18,0,0,0,.29-.86.74.74,0,0,0-.2-.53,1,1,0,0,0-.55-.28l-.53-.11a3.45,3.45,0,0,1-.45-.14,1.27,1.27,0,0,1-.63-.46,1.29,1.29,0,0,1-.24-.78,1.34,1.34,0,0,1,.13-.58,1.51,1.51,0,0,1,.36-.44,1.86,1.86,0,0,1,.52-.28,2.2,2.2,0,0,1,.64-.09,3.42,3.42,0,0,1,.75.07,5.79,5.79,0,0,1,.63.19l.12,1.27-.08,0c-.1-.2-.19-.39-.29-.57a2.14,2.14,0,0,0-.32-.45,1.24,1.24,0,0,0-.39-.29,1.16,1.16,0,0,0-.51-.1,1,1,0,0,0-.34.06.79.79,0,0,0-.29.18.81.81,0,0,0-.21.3.86.86,0,0,0-.09.41.65.65,0,0,0,.22.54,1.5,1.5,0,0,0,.54.25l.49.1.46.11a1.5,1.5,0,0,1,.78.47,1.25,1.25,0,0,1,.33.88A1.46,1.46,0,0,1,186,59.18Z"/><ellipse class="cls-10" cx="138.71" cy="45.76" rx="16.39" ry="1.89"/><ellipse class="cls-11" cx="126.33" cy="45.89" rx="16.39" ry="1.89"/><ellipse class="cls-12" cx="101.52" cy="45.89" rx="16.39" ry="1.89"/><ellipse class="cls-13" cx="78.85" cy="45.89" rx="16.39" ry="1.89"/><ellipse class="cls-14" cx="51.84" cy="45.89" rx="16.39" ry="1.89"/><ellipse class="cls-15" cx="28.11" cy="45.76" rx="16.39" ry="1.89"/></svg>