<svg id="Layer_1" data-name="Layer 1" xmlns="http://www.w3.org/2000/svg" viewBox="0 0 866.77 412.73"><defs><style>.cls-1,.cls-4{fill:#fff;}.cls-1,.cls-2,.cls-4,.cls-8{stroke:#0b3453;}.cls-1,.cls-2,.cls-4{stroke-linejoin:round;}.cls-1,.cls-2{stroke-width:5px;}.cls-2,.cls-8{fill:none;}.cls-3,.cls-5{fill:#0b3453;}.cls-4{stroke-linecap:round;stroke-width:1.1px;}.cls-5{font-size:24px;font-family:HelveticaNeue, Helvetica Neue;}.cls-6{letter-spacing:-0.02em;}.cls-7{fill:#98ca3d;}.cls-8{stroke-miterlimit:10;stroke-width:4.65px;}</style></defs><title>process-diagram</title><rect class="cls-1" x="305.88" y="2.5" width="255" height="184"/><rect class="cls-1" x="305.88" y="226.23" width="255" height="184"/><rect class="cls-1" x="609.27" y="109.57" width="255" height="184"/><rect class="cls-1" x="2.5" y="109.57" width="255" height="184"/><polyline class="cls-2" points="130 326.61 130 359.51 305.88 359.51"/><path class="cls-3" d="M130,296.44c-5.27,14.2-14.26,31.81-23.78,42.73l23.78-8.6,23.77,8.6C144.25,328.25,135.26,310.64,130,296.44Z"/><polyline class="cls-2" points="736.77 82.26 736.77 49.37 560.88 49.37"/><path class="cls-3" d="M736.77,112.44C742,98.24,751,80.62,760.54,69.7l-23.77,8.6L713,69.7C722.51,80.62,731.5,98.24,736.77,112.44Z"/><polyline class="cls-2" points="275.71 49.37 130 49.37 130 112.44"/><path class="cls-3" d="M305.88,49.37c-14.2-5.27-31.81-14.26-42.73-23.78l8.6,23.78-8.6,23.77C274.07,63.62,291.68,54.63,305.88,49.37Z"/><polyline class="cls-2" points="591.06 359.51 736.77 359.51 736.77 296.44"/><path class="cls-3" d="M560.88,359.51c14.2,5.27,31.82,14.26,42.74,23.78L595,359.51l8.6-23.78C592.7,345.25,575.08,354.24,560.88,359.51Z"/><path class="cls-4" d="M477.51,332.25"/><text class="cls-5" transform="translate(42.95 154.39)">Market Analysis</text><text class="cls-5" transform="translate(334.25 44.5)">Custom Marketing</text><text class="cls-5" transform="translate(649.2 149.58)"><tspan class="cls-6">V</tspan><tspan x="14.23" y="0">isual Reporting</tspan></text><text class="cls-5" transform="translate(348.71 268.29)">Impact Analysis</text><path class="cls-3" d="M427.29,320.06l-23.8,63a5.41,5.41,0,0,0,5.07,7.32h47.58a5.41,5.41,0,0,0,5.06-7.32l-23.79-63A5.41,5.41,0,0,0,427.29,320.06Z"/><circle class="cls-3" cx="432.35" cy="295.48" r="13.96"/><path class="cls-3" d="M126.55,204.5l-23.8,63a5.41,5.41,0,0,0,5.07,7.32H155.4a5.4,5.4,0,0,0,5.06-7.32l-23.79-63A5.41,5.41,0,0,0,126.55,204.5Z"/><circle class="cls-3" cx="131.61" cy="179.92" r="13.96"/><path class="cls-7" d="M146.41,266a13.08,13.08,0,0,1-.09-1.69,12.21,12.21,0,0,1,1-5c1-2.5,1-2.5,5.89-8.83,2.67-3.48,4.19-7.22,4.19-10.25,0-4.64-4.1-8.21-9.45-8.21-4.91,0-8.74,2.95-9.28,7.23a11.53,11.53,0,0,1,3.92-.81c3.75,0,6.25,2.59,6.25,6.51,0,4.64-3.3,7.67-8.38,7.67s-8.83-4.72-8.83-11.14c0-10.35,8.83-17.93,20.86-17.93,12.4,0,21.13,6.78,21.13,16.41,0,6.69-2.76,10.61-11.41,16.5-5.35,3.65-6.24,4.81-7,9.53Zm11.86,13a7.4,7.4,0,0,1-7.4,7.49,7.49,7.49,0,1,1,7.4-7.49Z"/><path class="cls-7" d="M491.64,336l1.59,2.28q-9.76,7.36-21.74,22.66t-18.27,28.6l-3.38,2.28a57.1,57.1,0,0,0-5.71,4.34,70,70,0,0,0-2.6-7l-1.28-3a45.74,45.74,0,0,0-5.1-9.45,11.38,11.38,0,0,0-5.27-4.07q4.94-5.2,9-5.2,3.52,0,7.81,9.54l1.42,3.2A132.73,132.73,0,0,1,468,354.82Q480.08,342.52,491.64,336Z"/><path class="cls-3" d="M733.29,201.25l-23.79,63a5.41,5.41,0,0,0,5.06,7.32h47.59a5.41,5.41,0,0,0,5.06-7.32l-23.79-63A5.41,5.41,0,0,0,733.29,201.25Z"/><circle class="cls-3" cx="738.36" cy="176.67" r="13.96"/><polygon class="cls-7" points="749.37 259.12 731.13 284.42 739.32 252.21 749.37 259.12"/><polygon class="cls-7" points="776.23 235.94 757.99 261.25 755.66 252.7 766.18 229.03 776.23 235.94"/><polygon class="cls-7" points="756 264.02 739.32 252.21 741.25 244.5 761.69 256.12 756 264.02"/><polygon class="cls-7" points="799.18 218.35 784.42 238.83 782.08 230.28 792.68 214.43 799.18 218.35"/><polygon class="cls-7" points="782.42 241.6 766.18 229.03 770.34 219.38 788.11 233.71 782.42 241.6"/><polygon class="cls-7" points="803.36 236 796.22 216.57 775.6 219.24 804 203.58 803.36 236"/><path class="cls-3" d="M373.84,114.9l-17.58,46.56a4,4,0,0,0,3.74,5.42h35.17a4,4,0,0,0,3.74-5.42L381.32,114.9A4,4,0,0,0,373.84,114.9Z"/><path class="cls-3" d="M431,96.54l-23.79,63a5.42,5.42,0,0,0,5.06,7.33h47.59a5.42,5.42,0,0,0,5.06-7.33l-23.79-63A5.42,5.42,0,0,0,431,96.54Z"/><path class="cls-3" d="M488.53,121.07,473.09,162a3.51,3.51,0,0,0,3.28,4.75h30.9a3.51,3.51,0,0,0,3.28-4.75l-15.44-40.91A3.52,3.52,0,0,0,488.53,121.07Z"/><line class="cls-8" x1="382.09" y1="94.71" x2="425.75" y2="75.33"/><line class="cls-8" x1="446.56" y1="74.97" x2="487.89" y2="102.17"/><circle class="cls-7" cx="377.58" cy="96.73" r="10.32"/><circle class="cls-7" cx="436.01" cy="71.96" r="13.96"/><circle class="cls-7" cx="491.82" cy="105.12" r="9.07"/></svg>