<svg id="Layer_1" data-name="Layer 1" xmlns="http://www.w3.org/2000/svg" viewBox="0 0 131.21 136.44"><defs><style>.cls-1{fill:#0b3453;}.cls-2{fill:#98ca3f;}</style></defs><title>star-icon</title><path class="cls-1" d="M69.49,133.62,82.18,94.57a4.07,4.07,0,0,1,3.88-2.82h41.06a4.08,4.08,0,0,0,2.4-7.39L96.3,60.23a4.08,4.08,0,0,1-1.48-4.57l12.69-39a4.08,4.08,0,0,0-6.29-4.56L68,36.18a4.07,4.07,0,0,1-4.79,0L30,12.05a4.08,4.08,0,0,0-6.29,4.56L36.39,55.66a4.08,4.08,0,0,1-1.48,4.57L1.69,84.36a4.09,4.09,0,0,0,2.4,7.39H45.15A4.07,4.07,0,0,1,49,94.57l12.69,39.05A4.09,4.09,0,0,0,69.49,133.62Z"/><path class="cls-2" d="M69.49,2.82,82.18,41.87a4.07,4.07,0,0,0,3.88,2.82h41.06a4.08,4.08,0,0,1,2.4,7.39L96.3,76.21a4.09,4.09,0,0,0-1.48,4.57l12.69,39.05a4.08,4.08,0,0,1-6.29,4.56L68,100.26a4.07,4.07,0,0,0-4.79,0L30,124.39a4.08,4.08,0,0,1-6.29-4.56l12.69-39a4.09,4.09,0,0,0-1.48-4.57L1.69,52.08a4.09,4.09,0,0,1,2.4-7.39H45.15A4.07,4.07,0,0,0,49,41.87l12.69-39A4.09,4.09,0,0,1,69.49,2.82Z"/></svg>